<?xml version="1.0" encoding="UTF-8"?>
<svg id="Layer_2" data-name="Layer 2" xmlns="http://www.w3.org/2000/svg" xmlns:xlink="http://www.w3.org/1999/xlink" viewBox="0 0 422.72 422.72">
  <defs>
    <style>
      .cls-1 {
        fill: none;
      }

      .cls-2 {
        fill: #a9a9ff;
      }

      .cls-3 {
        fill: #2b223d;
      }

      .cls-4 {
        fill: #6e6eff;
      }

      .cls-5 {
        fill: #fff;
      }

      .cls-6 {
        fill: #1e1f28;
      }

      .cls-7 {
        clip-path: url(#clippath);
      }

      .cls-8 {
        fill: #e6e6ff;
      }
    </style>
    <clipPath id="clippath">
      <circle class="cls-1" cx="211.36" cy="211.36" r="211.36"/>
    </clipPath>
  </defs>
  <g id="Layer_1-2" data-name="Layer 1">
    <g class="cls-7">
      <circle class="cls-3" cx="211.36" cy="211.36" r="211.36"/>
      <g>
        <g>
          <path class="cls-8" d="M270.64,276.39c2.45,1,5.84.7,8.27-.02,3.61-1.07,7.1-2.7,10.4-4.51,6.26-3.43,12.68-6.57,19.01-9.87,5.64-2.94,12.86-5.74,16.35-11.38,2.57-4.21,2.43-9.25-.43-13.28-2.85-4.01-7.66-6.96-12.43-8.05-2.63-.6-5.24-.34-7.62.95-6.28,3.42-11.1,9.42-15.96,14.53-4.37,4.6-8.67,9.27-12.88,14.02-3.07,3.46-7.61,7.44-7.86,12.41-.14,2.82,1.21,4.41,3.14,5.19Z"/>
          <path class="cls-8" d="M311.82,244.25c.26-.03.52-.08.77-.14,3.6-.86,5.49-4.16,7.55-6.93,1.9-2.55,3.68-5.18,5.4-7.84,1.3-2.01,3.03-4.26,3.02-6.78-.01-2.05-1.26-3.99-3.38-4.31-2.33-.36-4.28,1.18-5.69,2.86-1.94,2.32-3.77,4.75-5.65,7.12-1.77,2.24-3.63,4.43-5.3,6.75-1.26,1.73-2.53,3.94-2.16,6.17.44,2.66,3.11,3.41,5.45,3.1Z"/>
          <path class="cls-6" d="M321.48,234.68c-2.25,2.88-4.49,5.77-6.74,8.65-.41.53.35,1.26.77.72,2.25-2.88,4.49-5.77,6.74-8.65.41-.53-.35-1.26-.77-.72h0Z"/>
          <path class="cls-6" d="M325.13,240.69c-1.19,2.99-3.17,5.62-5.74,7.56-.54.4.02,1.3.56.89,2.72-2.04,4.86-4.79,6.11-7.95.25-.62-.68-1.13-.93-.5h0Z"/>
          <path class="cls-6" d="M305.3,262.39c-6.19-2.1-11.11-7.36-13.07-13.57-.56-1.77-.87-3.59-.92-5.44-.02-.68-1.07-.66-1.05.02.19,6.93,3.94,13.49,9.61,17.42,1.6,1.11,3.34,1.97,5.18,2.59.64.22.89-.81.25-1.02h0Z"/>
        </g>
        <path class="cls-8" d="M101.42,336.98c2.58-3.39,5.23-6.72,7.85-10.08,2.22-2.85,4.5-5.82,8.01-7.1,3.1-1.13,6.44-.25,8.67,2.15,4.83,5.19,1.7,12.68-1.53,18.01-4.89,8.05-13.45,15.44-21.15,12.81-2.78-.95-4.97-3.46-5.4-6.39-.52-3.53,1.5-6.72,3.55-9.41Z"/>
        <path class="cls-6" d="M124.6,322.73c-1.67-1.68-4.07-.14-5.32,1.24-1.71,1.87-3.23,3.95-4.82,5.92-3.31,4.1-6.62,8.21-9.93,12.31-1.55,1.93-4,4.37-3.36,7.1.15.66-.86.94-1.02.28-.58-2.48.89-4.68,2.36-6.54,1.85-2.34,3.75-4.65,5.62-6.98l5.58-6.92c.93-1.15,1.86-2.31,2.79-3.46.82-1.02,1.61-2.1,2.56-3.01,1.66-1.57,4.44-2.56,6.29-.7.48.48-.27,1.23-.75.75h0Z"/>
        <path class="cls-8" d="M67.34,303.11c2.91-2.32,6.44-3.98,9.65-5.83,3.09-1.78,6.2-3.97,9.68-4.91,2.99-.81,6.15-.27,8.23,2.18,5.67,6.7-.42,15.29-6.69,18.66-5.23,2.81-12.17,5.46-18.06,3.87-2.74-.74-5.99-3.26-6.48-6.2-.52-3.09,1.36-5.93,3.68-7.77Z"/>
        <path class="cls-6" d="M93.87,295.41c-1.41-2.2-4.6-.32-6.28.45-2.4,1.11-4.8,2.23-7.2,3.34-2.36,1.09-4.72,2.19-7.08,3.28-2.02.94-4.13,1.89-5.71,3.51-1.57,1.62-2.51,4.19-1.37,6.3.32.6-.59,1.13-.91.53-1.07-1.98-.7-4.36.46-6.21,1.31-2.09,3.53-3.38,5.69-4.43,5.35-2.59,10.78-5.01,16.17-7.51,1.29-.6,2.63-1.31,4.09-1.33,1.21-.01,2.38.5,3.04,1.53.37.57-.54,1.1-.91.53h0Z"/>
        <g>
          <path class="cls-4" d="M274.49,196.28c1.92-4.62,4.28-9.09,7.23-13.14,2.11-2.88,4.6-5.84,7.76-7.61,1.62-.9,3.56-1.47,5.33-.64,1.85.88,3.63,1.9,5.48,2.78,1.56.74,3.21,1.55,4.08,3.13.73,1.34,1.05,2.89,1.22,4.39.49,4.41-.29,8.96-1.36,13.23-.83,3.27-1.92,6.47-3.21,9.58-1.91,4.6-4.26,9.05-7.19,13.08-2.1,2.88-4.58,5.83-7.73,7.61-1.67.95-3.83,1.57-5.67.74-2.58-1.17-5.13-2.52-7.52-4.04-1.22-.78-1.92-1.97-2.37-3.34-1.22-3.66-.82-7.86-.21-11.6.79-4.87,2.28-9.63,4.17-14.19Z"/>
          <path class="cls-6" d="M279.6,172.2c.88-5.56,3.91-11.19,5.78-16.02,3.77-9.74,7.53-19.49,11.53-29.14.88-2.12,1.78-4.24,2.69-6.35.69-1.59,1.6-3.44,2.87-4.46.94-.75,2.25-.79,3.17.09,1.28,1.23,1.2,3.49,1.09,5.26-.17,2.71-.42,5.42-.69,8.12-.67,6.65-1.75,13.18-2.7,19.76-.83,5.59-1.72,11.17-2.67,16.75-.86,5.03-1.08,11.12-3.64,15.64-1.9,3.35-5.59,4.57-9.28,4.07-3.02-.4-5.63-1.78-7.01-4.59-1.44-2.92-1.62-6.01-1.13-9.13Z"/>
          <path class="cls-6" d="M297.27,176.78c1.85,2.04,1.86,5.32,1.71,7.89-.24,4.22-1.25,8.41-2.51,12.44-1.46,4.66-3.34,9.21-5.67,13.51-2.16,3.99-4.7,7.86-7.81,11.19-1.19,1.27-2.49,2.5-3.97,3.43-.98.62-2.11,1.13-3.3.97-.67-.09-.38-1.11.28-1.02.82.11,1.75-.41,2.44-.83,1.24-.77,2.33-1.78,3.35-2.82,2.91-2.99,5.3-6.5,7.36-10.12,2.35-4.11,4.25-8.47,5.77-12.96,1.33-3.93,2.41-8,2.86-12.12.19-1.76.28-3.58.05-5.34-.16-1.21-.47-2.55-1.32-3.48-.45-.5.29-1.25.75-.75h0Z"/>
          <path class="cls-4" d="M298.03,176.61c.74-4.19,1.47-8.39,2.21-12.58.12-.67,1.13-.38,1.02.28-.74,4.19-1.47,8.39-2.21,12.58-.12.67-1.13.38-1.02-.28h0Z"/>
          <path class="cls-4" d="M304.3,117.73c-1.9.17-2.58,2.29-2.86,3.86-.35,1.94-.6,3.9-.9,5.84-.62,4.08-1.25,8.16-1.87,12.24-1.25,8.16-2.49,16.32-3.74,24.49-.7,4.6-1.4,9.2-2.11,13.81-.1.67-1.12.38-1.02-.28,2.6-17.02,5.19-34.04,7.79-51.05.17-1.13.34-2.26.52-3.39.17-1.09.28-2.21.61-3.26.53-1.68,1.73-3.15,3.57-3.32.68-.06.67.99,0,1.05h0Z"/>
          <path class="cls-8" d="M91.27,228.69c1.04-5.42,2.61-10.74,4.68-15.83,4.72-11.59,10.92-22.68,16.7-33.78,2.71-5.17,5.44-10.32,8.05-15.54,8.1-16.26,17.8-31.93,27.7-47.14,8.73-13.41,19.64-24.5,35.91-28.14,20.48-4.58,42.61,1.01,60.95,10.41,6.96,3.58,13.6,7.84,19.6,12.87,8.65,7.27,16.17,16,21.64,25.91,5.91,10.69,9.21,22.72,9.11,34.96,0,1.33-.06,2.65-.14,3.97-.67,11-3.73,21.8-8.27,31.81-6.49,14.3-15.68,27.22-25.22,39.7-1.58,2.07-3.16,4.11-4.74,6.16-12.75,16.47-26.29,32.65-41.2,47.22-4.4,4.31-9.05,8.45-14.22,11.83-5.08,3.32-10.69,5.75-16.59,7.15-25.66,6.11-55.74-5.78-74.39-23.53-18.37-17.5-24.27-43.77-19.58-68.04Z"/>
          <path class="cls-6" d="M150.52,116.03c.18-4.71,2.67-8.33,4.81-12.32,1.23-2.29,2.46-4.58,3.69-6.87,4.92-9.13,9.91-18.24,15.15-27.2.81-1.38,1.62-2.75,2.44-4.13.89-1.49,2.04-3.2,3.43-4.05,1.03-.62,2.33-.48,3.13.51,1.11,1.39.73,3.62.39,5.35-.52,2.67-1.13,5.32-1.75,7.96-1.54,6.51-3.46,12.83-5.27,19.24-1.33,4.65-2.71,9.29-4.13,13.92-.63,2.02-1.18,4.07-1.84,6.07-.67,2.04-1.05,4.15-1.89,6.14-1.14,2.7-2.92,5.47-5.95,6.14-3.08.68-6.3-.71-8.57-2.74-1.09-.97-2.1-2.19-2.74-3.5-.7-1.42-.94-2.96-.88-4.52Z"/>
          <path class="cls-2" d="M167.19,179.73c.83-4.99,1.99-11.12,3-15.73,1.95-8.96,4.43-17.79,6.29-26.77,1.08-5.2,2.26-13.65,8.76-14.68,2.88-.46,5.95.19,8.8.62,3.41.52,6.78,1.18,10.13,1.96,6.41,1.5,12.7,3.46,18.88,5.75,12.55,4.68,24.59,10.72,36.21,17.36,10.93,6.25,21.57,13.26,30.6,22.09.69.68,1.37,1.37,2.03,2.07,2.42,2.53,4.05,5.77,3.59,9.24-1.2,9.08-4.48,18.23-8.26,26.56-6,13.23-14.32,25.28-23.08,36.89-1.33,1.76-3.55,2.62-5.72,2.21-2.46-.48-2.23-.55-4.66-1.18-24.5-6.35-47.67-18.26-68.68-32.23-6.95-4.62-14.35-10.03-17.22-18.24-1.77-5.07-1.57-10.51-.67-15.91Z"/>
          <path class="cls-6" d="M251.95,260.12c-11.29,3.11-23.31.41-34.03-3.53-11.28-4.15-22.04-9.74-32.15-16.21-9.75-6.23-18.89-13.4-27.32-21.32-4.2-3.94-8.22-8.07-12.05-12.37-3.74-4.2-7.36-8.55-10.59-13.17-6.24-8.92-11.15-19.13-12.07-30.11-.11-1.33-.16-2.67-.15-4.01,0-.68,1.06-.68,1.05,0-.08,11,4.16,21.41,10.03,30.54,2.97,4.63,6.38,8.94,9.95,13.12,3.68,4.31,7.56,8.45,11.61,12.42,8.15,7.98,17.01,15.26,26.48,21.63,9.84,6.61,20.31,12.37,31.3,16.83,10.48,4.25,22.15,7.78,33.57,6.03,1.38-.21,2.75-.51,4.09-.88.66-.18.93.84.28,1.02h0Z"/>
          <path class="cls-6" d="M246.34,268.54c-11.29,3.11-23.31.41-34.03-3.53-11.28-4.15-22.04-9.74-32.15-16.21-9.75-6.23-18.89-13.4-27.32-21.32-4.2-3.94-8.22-8.07-12.05-12.37-3.74-4.2-7.36-8.55-10.59-13.17-6.24-8.92-11.15-19.13-12.07-30.11-.11-1.33-.16-2.67-.15-4.01,0-.68,1.06-.68,1.05,0-.08,11,4.16,21.41,10.03,30.54,2.97,4.63,6.38,8.94,9.95,13.12,3.68,4.31,7.56,8.45,11.61,12.42,8.15,7.98,17.01,15.26,26.48,21.63,9.84,6.61,20.31,12.37,31.3,16.83,10.48,4.25,22.15,7.78,33.57,6.03,1.38-.21,2.75-.51,4.09-.88.66-.18.93.84.28,1.02h0Z"/>
          <path class="cls-6" d="M227.84,269.17c-2.12,2.57-4.31,5.07-6.5,7.58-2.58,2.95-5.12,5.98-7.87,8.77-2.68,2.72-6.02,5.11-10.02,4.81-2.08-.16-4.02-.9-5.95-1.62-2.05-.76-4.09-1.54-6.12-2.36-8.08-3.24-15.99-6.92-23.61-11.14-3.8-2.1-7.53-4.33-11.08-6.84-2.41-1.71-5.44-3.54-6.14-6.64-.41-1.82.15-3.6,1.07-5.18,1.06-1.8,2.45-3.42,3.74-5.06,2.79-3.57,5.67-7.08,8.62-10.53.72-.84,1.44-1.67,2.16-2.5.45-.51,1.19.24.75.75-2.82,3.22-5.57,6.5-8.25,9.84-1.38,1.72-2.74,3.45-4.08,5.19-1.18,1.53-2.5,3.13-2.96,5.05-.82,3.45,2.23,5.78,4.71,7.52,3.3,2.31,6.66,4.46,10.16,6.45,7.31,4.15,14.9,7.81,22.67,11.03,1.94.81,3.9,1.58,5.86,2.34,1.9.73,3.82,1.52,5.77,2.1,1.84.54,3.75.78,5.63.27,1.91-.52,3.59-1.7,5.05-3.01,1.37-1.23,2.6-2.62,3.82-3.99,1.26-1.41,2.52-2.81,3.76-4.22,2.32-2.62,4.62-5.26,6.88-7.93.4-.47.79-.95,1.19-1.42.43-.52,1.17.23.75.75h0Z"/>
          <path class="cls-6" d="M275.89,122.01c1.39,7.64,1.84,15.56-.1,23.15-.46,1.79-1.05,3.54-1.74,5.25-.25.62-1.27.35-1.02-.28,2.63-6.47,3.39-13.39,2.85-20.32-.2-2.52-.55-5.03-1-7.51-.12-.66.9-.95,1.02-.28h0Z"/>
          <path class="cls-6" d="M210.3,87.52c4.32,3.96,8.2,8.52,10.75,13.83,2.18,4.54,3.28,9.46,3.57,14.47.18,3.05.06,6.11-.19,9.15-.06.67-1.11.68-1.05,0,.42-5.09.45-10.26-.61-15.28-1.06-5.02-3.23-9.69-6.26-13.82-2.04-2.78-4.42-5.29-6.96-7.61-.5-.46.25-1.2.75-.75h0Z"/>
          <path class="cls-6" d="M294.43,172.58c-.14-4.85-4.54-8.18-7.88-11.1-4.32-3.78-8.88-7.27-13.63-10.5-9.39-6.38-19.49-11.6-29.67-16.59-10.37-5.08-21.01-9.73-32.12-12.92-5.58-1.6-11.28-2.82-17.06-3.47-2.8-.31-5.65-.59-8.47-.47-2.6.11-5.65.69-7.69,2.44-1.58,1.37-2.35,3.4-2.91,5.36-.66,2.29-1.21,4.61-1.83,6.9-1.55,5.71-3.07,11.44-4.47,17.19-1.4,5.75-2.68,11.54-3.74,17.36-.52,2.86-.96,5.72-1.4,8.6-.43,2.78-.85,5.57-1.07,8.38-.42,5.37,0,10.81,2.34,15.73,1.77,3.72,4.36,6.99,7.28,9.88,6.22,6.16,13.83,10.77,21.36,15.15,4.01,2.33,8.01,4.7,12.1,6.9,5.07,2.72,10.25,5.23,15.5,7.57,5.19,2.32,10.46,4.42,15.84,6.25,2.64.89,5.31,1.73,7.99,2.5,2.63.76,5.3,1.64,8,2.11,2.37.41,4.69,0,6.5-1.66.5-.46,1.25.29.75.75-1.77,1.61-3.99,2.3-6.36,2.09-1.32-.12-2.6-.47-3.88-.81-1.37-.36-2.73-.73-4.09-1.12-5.57-1.58-11.08-3.4-16.48-5.5-10.74-4.18-21.12-9.32-31.09-15.1-7.62-4.42-15.37-8.72-22.25-14.27-7.03-5.67-13.15-12.87-14.4-22.11-.76-5.64.08-11.32.94-16.9.91-5.97,1.96-11.9,3.24-17.8,1.3-5.96,2.78-11.89,4.34-17.79.77-2.94,1.56-5.88,2.36-8.81.61-2.24,1.1-4.54,1.82-6.74.64-1.93,1.56-3.84,3.2-5.11,2.1-1.63,4.92-2.28,7.52-2.47,2.88-.2,5.83.08,8.69.39,2.97.32,5.92.78,8.85,1.37,11.56,2.33,22.66,6.58,33.36,11.46,5.37,2.45,10.66,5.08,15.91,7.77,5.22,2.67,10.39,5.44,15.38,8.51,4.93,3.03,9.7,6.31,14.26,9.87,2.33,1.82,4.59,3.71,6.8,5.67,1.75,1.56,3.54,3.11,4.97,4.98,1.35,1.76,2.21,3.79,2.28,6.03.02.68-1.04.68-1.05,0h0Z"/>
          <g>
            <path class="cls-5" d="M259.78,170.05h2.83c.77,0,1.39.62,1.39,1.39v9.2c0,.77-.62,1.39-1.39,1.39h-2.83c-.77,0-1.39-.62-1.39-1.39v-9.2c0-.77.62-1.39,1.39-1.39Z" transform="translate(435.65 438.29) rotate(-157.61)"/>
            <path class="cls-5" d="M237.64,159.31h2.83c.77,0,1.39.62,1.39,1.39v9.2c0,.77-.62,1.39-1.39,1.39h-2.83c-.77,0-1.39-.62-1.39-1.39v-9.2c0-.77.62-1.39,1.39-1.39Z" transform="translate(397.14 409.19) rotate(-157.61)"/>
            <g>
              <path class="cls-5" d="M263.6,191.6h2.83c.77,0,1.39.62,1.39,1.39v9.2c0,.77-.62,1.39-1.39,1.39h-2.83c-.77,0-1.39-.62-1.39-1.39v-9.2c0-.77.62-1.39,1.39-1.39Z" transform="translate(434.81 481.22) rotate(-157.61)"/>
              <path class="cls-5" d="M257.23,193h2.83c.77,0,1.39.62,1.39,1.39v9.2c0,.77-.62,1.39-1.39,1.39h-2.83c-.77,0-1.39-.62-1.39-1.39v-9.2c0-.77.62-1.39,1.39-1.39Z" transform="translate(422 481.49) rotate(-157.61)"/>
              <path class="cls-5" d="M222.96,191.91l3.45-8.37c.31-.75,1.17-1.11,1.91-.8,9.33,3.84,18.65,7.76,27.97,11.6.75.31,1.11,1.17.8,1.91l-3.45,8.37c-.31.75-1.17,1.11-1.91.8-2.49-1.03-5-1.98-7.49-3.03-2.2-.93-4.4-1.85-6.6-2.78-4.62-1.95-9.26-3.88-13.89-5.79-.75-.31-1.11-1.17-.8-1.91Z"/>
              <path class="cls-5" d="M222.04,178.08h2.83c.77,0,1.39.62,1.39,1.39v9.2c0,.77-.62,1.39-1.39,1.39h-2.83c-.77,0-1.39-.62-1.39-1.39v-9.2c0-.77.62-1.39,1.39-1.39Z" transform="translate(359.96 439.38) rotate(-157.61)"/>
              <path class="cls-5" d="M218.47,173.24h2.83c.77,0,1.39.62,1.39,1.39v9.2c0,.77-.62,1.39-1.39,1.39h-2.83c-.77,0-1.39-.62-1.39-1.39v-9.2c0-.77.62-1.39,1.39-1.39Z" transform="translate(354.93 428.69) rotate(-157.61)"/>
            </g>
          </g>
          <path class="cls-4" d="M159.56,259.02c0,2.25,1.83,4.08,4.08,4.08s4.08-1.83,4.08-4.08-1.83-4.08-4.08-4.08-4.08,1.83-4.08,4.08Z"/>
          <path class="cls-4" d="M181.36,62.61c-2.73,1.04-3.38,4.67-4.08,7.14-1.05,3.71-2.1,7.42-3.15,11.13-2.09,7.38-4.17,14.76-6.26,22.14-1.18,4.18-2.36,8.35-3.54,12.53-.18.65-1.2.37-1.02-.28,4.34-15.35,8.68-30.7,13.01-46.06.81-2.87,1.63-6.44,4.74-7.62.64-.24.91.78.28,1.02h0Z"/>
          <path class="cls-4" d="M131.7,119.88c2.71-4.7,5.88-9.19,9.63-13.12,2.67-2.81,5.77-5.63,9.42-7.09,1.87-.75,4.04-1.08,5.82.06,1.87,1.2,3.64,2.56,5.51,3.77,1.57,1.02,3.24,2.11,3.95,3.94.6,1.55.73,3.26.69,4.9-.1,4.81-1.57,9.6-3.33,14.04-1.35,3.4-2.97,6.69-4.8,9.86-2.7,4.68-5.86,9.14-9.58,13.07-2.66,2.81-5.75,5.63-9.38,7.11-1.93.79-4.35,1.15-6.21,0-2.61-1.62-5.17-3.43-7.52-5.4-1.21-1.01-1.78-2.39-2.08-3.92-.8-4.11.22-8.58,1.4-12.51,1.54-5.13,3.81-10.05,6.48-14.68Z"/>
          <path class="cls-6" d="M153.79,99.22c5.07,1.84,4.4,8.9,3.49,13.07-.61,2.8-1.5,5.56-2.44,8.26-.9,2.57-1.97,5.08-3.18,7.52-2,3.99-4.4,7.79-7.12,11.34-2.6,3.39-5.55,6.77-9.23,9.02-1.77,1.08-3.88,2.01-5.99,1.76-2.11-.25-4.17-1.53-4.68-3.69-.16-.66.86-.94,1.02-.28.44,1.85,2.3,2.86,4.1,2.96,1.73.09,3.43-.7,4.88-1.57,3.38-2.03,6.13-5.08,8.54-8.15,2.43-3.09,4.61-6.41,6.5-9.87,2.46-4.52,4.25-9.29,5.71-14.21.84-2.83,1.53-5.76,1.44-8.73-.07-2.46-.7-5.46-3.32-6.41-.63-.23-.36-1.25.28-1.02h0Z"/>
          <path class="cls-6" d="M143.72,117.36c-1.43,3.03-3,6-4.7,8.9-.87,1.48-1.78,2.94-2.72,4.38-.4.62-.8,1.24-1.23,1.84-.38.53-.85,1.09-1.51,1.25-1.24.3-1.8-.95-1.59-1.97.12-.6.43-1.13.7-1.67.42-.82.85-1.64,1.28-2.46,1.61-3.04,3.33-6.02,5.13-8.95.48-.79.98-1.57,1.47-2.34.46-.72.89-1.59,1.53-2.17.86-.78,2.52-.6,2.57.78.02.68-1.03.68-1.05,0,0-.26-.39-.23-.55-.18-.28.1-.49.44-.65.66-.38.53-.72,1.1-1.07,1.65-.74,1.17-1.47,2.34-2.19,3.53-1.41,2.34-2.76,4.71-4.04,7.11-.63,1.18-1.29,2.36-1.86,3.57-.14.29-.44.92-.24,1.24.39.65,1.25-.71,1.44-.99,1.49-2.2,2.9-4.46,4.22-6.77,1.49-2.59,2.87-5.24,4.14-7.94.29-.61,1.2-.08.91.53h0Z"/>
        </g>
        <g>
          <path class="cls-8" d="M39.64,227.01c.1-1.9,1.53-3.36,3.28-3.92.33-.11.66-.17,1-.22-.84-.93-1.14-2.27-.5-3.55,1.13-2.27,3.76-2.58,6.01-2.8,5.56-.56,11.17-.5,16.72.11,3.52.18,7.04.41,10.55.71,7.08.6,14.14,1.43,21.16,2.51,3.45.53,6.88,1.12,10.31,1.77,3.02.57,6.18,1.01,9.03,2.18,2.41.99,6.6,2.22,7.63,4.67.93,2.2.97,4.52-.64,6.37-1.73,2.01-6.76,3.28-9.21,3.94-3.22.86-6.47,1.59-9.75,2.19-6.64,1.23-13.38,1.99-20.12,2.38-6.79.39-13.63.45-20.41-.27-6.3-.67-12.67-1.84-18.43-4.58-2.61-1.24-5.63-2.93-5.33-6.3.08-.87.52-1.46,1.13-1.83-1.43-.45-2.53-1.79-2.45-3.35Z"/>
          <path class="cls-6" d="M94.51,218.79c6,1.32,12.13,1.88,18.13,3.2,3.44.76,7.08,1.52,10.11,3.38,1.4.86,2.69,2.02,3.34,3.57.86,2.04.42,4.35-.89,6.1-1.37,1.82-3.62,2.73-5.73,3.37-2.88.87-5.83,1.52-8.79,2.07-6.71,1.25-13.51,2.06-20.31,2.66-.68.06-.67-1,0-1.05,5.78-.51,11.55-1.21,17.28-2.15,2.79-.46,5.57-.99,8.31-1.67,2.33-.58,4.87-1.13,6.9-2.48,1.87-1.24,3.08-3.56,2.48-5.8-.41-1.54-1.57-2.7-2.87-3.54-2.76-1.79-6.09-2.51-9.25-3.24-6.27-1.44-12.71-2.02-18.99-3.4-.66-.15-.38-1.16.28-1.02h0Z"/>
          <path class="cls-6" d="M61.65,225.89c-5.69.29-11.39-.16-16.98-1.22-.67-.13-.38-1.14.28-1.02,5.5,1.04,11.11,1.47,16.7,1.18.68-.03.68,1.02,0,1.05h0Z"/>
          <path class="cls-6" d="M61.52,233.92c-6.19.12-12.38-.63-18.37-2.2-.66-.17-.38-1.19.28-1.02,5.9,1.55,11.98,2.29,18.09,2.16.68-.01.68,1.04,0,1.05h0Z"/>
          <path class="cls-6" d="M82.6,218.75c2.47,7.7,2.7,16.03.68,23.86-.17.66-1.19.38-1.02-.28,1.98-7.66,1.74-15.77-.68-23.3-.21-.65.81-.92,1.02-.28h0Z"/>
        </g>
      </g>
      <g>
        <path class="cls-4" d="M370.31,159.11c.15,14.39-11.4,26.18-25.8,26.33-14.39.15-26.18-11.4-26.33-25.8-.15-14.39,11.4-26.18,25.8-26.33,14.39-.15,26.18,11.4,26.33,25.8Z"/>
        <g>
          <path class="cls-5" d="M335.88,184.5c-2.53-3.34-4.74-6.95-6.5-10.76-1.66-3.58-2.98-7.44-3.37-11.38-.65-6.56,1.01-13.47,6.12-17.94,5.29-4.63,12.94-5.49,19.39-3.01,3.24,1.25,6.16,3.45,8.1,6.35,2.14,3.21,3.08,7.04,3.06,10.87-.02,4.58-1.32,9.16-3.07,13.36-1.83,4.37-4.31,8.46-7.06,12.3-.39.55-.1,1.38.45,1.7.62.36,1.31.1,1.7-.45,5.19-7.25,9.57-15.69,10.37-24.71.37-4.13-.25-8.36-2.04-12.11-1.72-3.59-4.62-6.55-8.11-8.45-6.75-3.68-15.36-3.66-21.91.45-6.36,3.99-9.51,11.13-9.6,18.49-.11,8.62,3.76,17.01,8.52,24.01.59.87,1.2,1.71,1.83,2.55.4.53,1.07.81,1.7.45.53-.31.85-1.16.45-1.7h0Z"/>
          <path class="cls-5" d="M337.61,203.14c-1.01,0-1.96-.39-2.69-1.1-.73-.72-1.14-1.68-1.15-2.71l-.12-12.24c-.01-1.03.38-1.99,1.1-2.73.72-.73,1.68-1.14,2.7-1.15l13.38-.14c1.03-.03,1.99.38,2.73,1.1.73.72,1.14,1.68,1.15,2.71l.12,12.24c.01,1.03-.38,1.99-1.1,2.73-.72.73-1.68,1.14-2.71,1.15l-13.38.14h-.04ZM350.86,185.56h-.01l-13.38.14c-.36,0-.7.15-.96.41-.25.26-.39.6-.39.96l.12,12.24c0,.36.15.7.41.96.26.26.61.41.97.39l13.38-.14c.36,0,.7-.15.96-.41.25-.26.39-.6.39-.97l-.12-12.24c0-.36-.15-.7-.41-.96-.26-.25-.59-.39-.95-.39Z"/>
          <path class="cls-5" d="M337.88,171.78c-1.59-1.71-4.49-6.18-1.52-7.93,1.05-.62,2.44-.66,3.53-.11,1.58.8,2.54,2.84,2.96,4.47.41,1.56,2.72.89,2.39-.66-.66-3.17,3.58-6.09,6.37-4.67,3.26,1.66.32,6.58-1.37,8.29-1.12,1.14.63,2.9,1.76,1.76,2.98-3.03,5.82-10.01.5-12.36-4.74-2.1-10.72,2.49-9.65,7.65.8-.22,1.6-.44,2.39-.66-.6-2.3-2.03-4.95-4.26-6.03-1.83-.89-4.11-.86-5.88.19-4.64,2.75-1.76,8.84,1.02,11.83,1.09,1.17,2.84-.59,1.76-1.76h0Z"/>
        </g>
      </g>
      <g>
        <path class="cls-5" d="M367.86,132.77c2.21-2.39,4.43-4.78,6.65-7.17.74-.8-.5-1.96-1.25-1.16-2.21,2.39-4.43,4.78-6.65,7.17-.74.8.5,1.96,1.25,1.16h0Z"/>
        <path class="cls-5" d="M379.09,147.15c3.01-.86,6.03-1.66,9.11-2.23.45-.08.69-.66.57-1.06-.15-.48-.61-.65-1.06-.57-3.08.57-6.1,1.37-9.11,2.23-1.06.3-.56,1.93.49,1.63h0Z"/>
        <path class="cls-5" d="M377.67,165.82c2.95,1.39,5.81,2.91,8.65,4.52.95.54,1.74-.97.78-1.51-2.84-1.61-5.7-3.13-8.65-4.52-.99-.46-1.78,1.04-.78,1.51h0Z"/>
      </g>
    </g>
  </g>
</svg>