<?xml version="1.0" encoding="UTF-8"?>
<svg id="Layer_2" data-name="Layer 2" xmlns="http://www.w3.org/2000/svg" xmlns:xlink="http://www.w3.org/1999/xlink" viewBox="0 0 422.72 422.72">
  <defs>
    <style>
      .cls-1 {
        fill: none;
      }

      .cls-2 {
        fill: #ff90a9;
      }

      .cls-3 {
        fill: #252226;
      }

      .cls-4 {
        fill: #1b2328;
      }

      .cls-5 {
        fill: #f0ad05;
      }

      .cls-6 {
        fill: #7ac3ff;
      }

      .cls-7 {
        fill: #fff;
      }

      .cls-8 {
        clip-path: url(#clippath);
      }
    </style>
    <clipPath id="clippath">
      <circle class="cls-1" cx="211.36" cy="211.36" r="211.36"/>
    </clipPath>
  </defs>
  <g id="Layer_1-2" data-name="Layer 1">
    <g class="cls-8">
      <circle class="cls-4" cx="211.36" cy="211.36" r="211.36"/>
      <g>
        <g>
          <path class="cls-6" d="M225.31,308.9l-3.05.6c-33.05,6.51-65.13-15.01-71.63-48.06l-27.75-140.91c-6.51-33.05,15.01-65.12,48.06-71.63l3.05-.6c33.05-6.51,65.12,15.01,71.63,48.06l27.75,140.91c6.51,33.05-15.01,65.12-48.06,71.63Z"/>
          <g>
            <path class="cls-6" d="M84.15,249.9c1.43,4.17,5.74,7.56,5.74,7.56l70.13-15.89-6.53-26.91-55.78,12.87c-9.38,2.27-17.21,11.73-13.56,22.37Z"/>
            <rect class="cls-6" x="105.51" y="235.57" width="27.69" height="52.77" transform="translate(-162.36 202.76) rotate(-53.64)"/>
            <g>
              <path class="cls-6" d="M160.74,270.47c-2.34-2.73-5.68-4.04-9.08-4.91-1.84-.47-3.75-.74-5.57-1.29-2.49-.76-7.06-1.72-6.17,2.63.94,4.59,6.81,7.08,10.51,8.93,1.45.73,2.82,1.82,3.38,3.4.73,2.06-.55,3.76-.37,5.78.16,1.8,1.98,2.87,3.72,2.7,2.32-.23,4.25-1.95,5.35-3.91,2.38-4.23,1.31-9.73-1.77-13.31Z"/>
              <path class="cls-6" d="M156.55,274.78c-2.8-2.25-6.33-2.93-9.83-3.17-1.89-.13-3.83-.04-5.71-.25-2.59-.29-7.25-.4-5.58,3.71,1.76,4.34,7.99,5.71,11.96,6.86,1.56.45,3.1,1.27,3.94,2.72,1.1,1.89.14,3.8.69,5.75.49,1.74,2.47,2.46,4.15,1.97,2.23-.65,3.82-2.7,4.54-4.83,1.56-4.6-.49-9.8-4.17-12.77Z"/>
              <path class="cls-6" d="M150.45,280.72c-4.59-3.69-10.13-2.82-15.54-3.42-.7-.08-1.56-.14-2.4-.11-1.46-.32-3.07.24-4.05,1.38-2.68,3.11.48,7.68,3.02,9.74.57.46,1.19.88,1.85,1.23.16.08,1.68,1.03,1.58,1.08-.68.35-1.5.14-2.19.49-1.43.74-1.55,2.56-.87,3.86,1.18,2.25,3.93,3.63,6.27,4.29,6.57,1.86,14.86,1.22,16.76-6.75,1.03-4.33-1.04-9.06-4.43-11.78Z"/>
            </g>
          </g>
          <g>
            <path class="cls-6" d="M332.8,198.11c-.69-2.59-3.63-9.01-3.63-9.01l-73.49,16.56,6.28,26.97,56.2-13.07c9.59-2.23,17.54-10.58,14.64-21.45Z"/>
            <rect class="cls-6" x="303.35" y="154.74" width="27.69" height="47.82" transform="translate(650.67 324.68) rotate(174.26)"/>
            <g>
              <path class="cls-6" d="M301.8,133.33c.58,4.05,1.4,8.12,1.22,12.24-.08,1.72-1.28,3.55-1.72,5.21-.74,2.82-.24,5.27.03,8.17.1,1.11.86.73,1.68.75,3.07.11,6.31.07,9.01-1.56,2.49-1.5,3.78-4.3,4.75-6.92.51-1.37,1.08-2.7,1.01-4.18-.09-1.84-.84-3.58-1.52-5.27-2.05-5.11-2.12-11.7-6.95-15.24-1.9-1.4-4.83-2.15-6.63-.17-1.69,1.86-1.21,4.71-.89,6.97Z"/>
              <path class="cls-6" d="M314.53,154.1c.16-3.47,2.19-6.72,5.15-8.5,3.48-2.1,8-2.67,11.98-2.84,1.06-.04,2.13-.04,3.19,0,1.09.04,2.34.37,3.21-.46,1.49-1.41,2.67-3.46,3.79-5.17,1.77-2.67,3.67-6.05,7.34-5.95,1.47.04,2.82.74,3.53,2.06.8,1.49.54,3.28.1,4.83-1.17,4.08-2.69,8.13-4.3,12.06-.85,2.08-1.71,4.26-2.93,6.16-1.13,1.77-2.69,2.7-4.6,3.46-4.41,1.75-9.02,3.24-13.81,3.31-.87.2-1.78.29-2.63.38-1.78.2-3.67.18-5.32-.6-3.21-1.5-4.87-5.35-4.71-8.75Z"/>
              <path class="cls-6" d="M336.93,134.68c.79-2.36.73-4.92,1.39-7.31.58-2.09,1.99-4.68,4.43-4.82,3.08-.18,4.58,2.83,5.19,5.37.65,2.73.89,5.54.8,8.34.15.13.25.31.26.57.08,2.78-.98,5.25-2.62,7.45-1.57,2.11-3.56,4.24-5.81,5.63-2.27,1.4-4.95,1.72-7.53,1.11-2.27-.53-4.46-1.71-4.74-4.25-.65-5.9,7.02-7.24,8.63-12.09Z"/>
              <path class="cls-6" d="M326.33,130.32c.79-2.36.73-4.92,1.39-7.31.58-2.09,1.99-4.68,4.43-4.82,3.08-.18,4.58,2.83,5.19,5.37.65,2.73.89,5.54.8,8.34.15.13.25.31.26.57.08,2.78-.98,5.25-2.62,7.45-1.57,2.11-3.56,4.24-5.81,5.63-2.27,1.4-8.33,5.67-10.91,5.06-2.27-.53-4.2-3.71-4.48-6.26-.65-5.9,10.14-9.18,11.76-14.03Z"/>
            </g>
          </g>
          <g>
            <rect class="cls-6" x="168.92" y="287.39" width="27.69" height="75" transform="translate(165.84 -47.5) rotate(26.76)"/>
            <path class="cls-6" d="M135.75,372.04c2.64,3.08,9.08,2.27,12.52,2.17,6.15-.18,12.29-.4,18.43-.54,2.14-.05,4.32-.24,6.3-1.06,4.25-1.78,8.09-11.45,9.09-15.6.95-3.93-.75-5.05-5.08-7-2.21-1-4.63-1.6-6.99-2.11-2.35-.5-4.9-1.45-7.22-.76-9.94,2.99-12.53,6.34-21.24,13.8-1.36,1.17-5.34,4.61-6.11,7.15-.55,1.83-.77,2.69.31,3.95Z"/>
          </g>
          <g>
            <path class="cls-6" d="M254.06,290.91l-19.92,64.09-3.88,12.45-25.29-7.88c.18-2.43.57-4.83.89-6.9l.71-2.29,21.06-67.72,26.43,8.25Z"/>
            <path class="cls-6" d="M248.14,373.17c-2.64,3.08-9.08,2.27-12.51,2.16-6.15-.17-12.29-.4-18.43-.53-2.14-.04-4.32-.24-6.3-1.07-3.93-1.65-5.61-5.47-5.95-9.51-.4-4.79.15-9.76,1.81-14.29.07-.2,1.78-.54,2.49-.62,2.11-.27,4.22-.54,6.33-.81,1.82-.23,3.73-.77,5.52-.24,6.06,1.83,9.39,3.78,13.05,6.73,2.34,1.89,4.8,4.16,8.19,7.08,1.36,1.16,5.34,4.61,6.11,7.15.55,1.83.77,2.69-.31,3.95Z"/>
          </g>
        </g>
        <g>
          <path class="cls-3" d="M328.2,162.5c-1.7.96-3.55,1.36-5.55,1.21-.54-.04-1.05.5-1.03,1.03.03.59.45.98,1.03,1.03,2.28.17,4.6-.37,6.59-1.49.47-.26.66-.94.37-1.4-.3-.47-.9-.65-1.4-.37h0Z"/>
          <path class="cls-3" d="M304,195.81c.66,2.82,1.27,5.66,1.86,8.5.11.54.75.86,1.26.72.56-.15.83-.72.72-1.26-.6-2.84-1.2-5.67-1.86-8.5-.13-.54-.74-.86-1.26-.72-.55.15-.84.72-.72,1.26h0Z"/>
          <path class="cls-3" d="M347.45,131.19c-3.18,1.42-5.29,4.42-6.42,7.63-.27.78-.49,1.57-.64,2.38-.16.81-.22,1.79-.72,2.47-.46.62-1.27.85-1.98,1.03-.87.21-1.75.34-2.62.56-2.24.57-4.39,1.5-6.37,2.7-1.13.69-.1,2.46,1.04,1.77,1.7-1.04,3.52-1.85,5.44-2.38,1.7-.47,3.7-.51,5.18-1.56,1.62-1.14,1.73-2.93,2.15-4.7.38-1.62.99-3.16,1.89-4.56,1.01-1.57,2.39-2.81,4.09-3.58.51-.23.63-.96.37-1.4-.3-.52-.9-.59-1.4-.37h0Z"/>
          <path class="cls-3" d="M336.6,128.88c-.9,2.27-1.72,4.6-2.72,6.83-.37.82-.9,1.28-1.73,1.59-.93.35-1.9.61-2.74,1.15-1.11.71-.08,2.49,1.04,1.77.83-.54,1.81-.75,2.71-1.13,1.06-.45,1.91-1.15,2.43-2.2.56-1.16.98-2.4,1.46-3.6.51-1.29,1.03-2.58,1.54-3.88.2-.51-.22-1.13-.72-1.26-.58-.16-1.06.2-1.26.72h0Z"/>
          <path class="cls-3" d="M313.36,137.75c.72,3.68.29,7.49-1.15,10.95-.21.51.23,1.13.72,1.26.59.16,1.05-.2,1.26-.72,1.57-3.8,1.94-8.01,1.15-12.04-.25-1.29-2.23-.75-1.98.55h0Z"/>
          <path class="cls-3" d="M149.95,274.05c2.58.41,4.94,1.64,6.69,3.6,1.8,2.02,2.73,4.7,2.7,7.39-.01,1.32,2.04,1.32,2.05,0,.06-6.35-4.6-11.98-10.89-12.97-.55-.09-1.1.14-1.26.72-.13.49.17,1.18.72,1.26h0Z"/>
          <path class="cls-3" d="M143.94,282.97c1.32.41,2.63.86,3.91,1.4,1.11.47,2.12,1.03,2.94,1.93,1.47,1.61,2.17,3.8,2.81,5.83.39,1.26,2.37.72,1.98-.55-.75-2.39-1.61-4.86-3.33-6.74-.93-1.01-2.09-1.7-3.34-2.24-1.44-.62-2.91-1.16-4.41-1.62-1.26-.39-1.81,1.59-.55,1.98h0Z"/>
          <path class="cls-3" d="M135.17,291.79c.97,1.08,2.33,1.69,3.7,2.09,1.5.44,3.05.72,4.58,1.07.54.12,1.11-.16,1.26-.72.14-.52-.17-1.14-.72-1.26-1.45-.32-2.91-.61-4.34-1-1.18-.32-2.22-.73-3.03-1.63-.37-.41-1.07-.38-1.45,0-.41.41-.37,1.04,0,1.45h0Z"/>
          <path class="cls-3" d="M112.43,240.36c4.01,3.01,8.02,6.02,12.14,8.88,1.09.75,2.11-1.02,1.04-1.77-4.12-2.86-8.13-5.87-12.14-8.88-.44-.33-1.15-.07-1.4.37-.31.52-.08,1.07.37,1.4h0Z"/>
          <path class="cls-3" d="M265.94,204.32c1.24,6.78,2.6,13.54,3.88,20.31.35,1.82.69,3.65,1.02,5.48.24,1.3,2.21.75,1.98-.55-1.37-7.5-2.84-14.99-4.27-22.48-.21-1.1-.43-2.2-.63-3.3-.24-1.3-2.21-.75-1.98.55h0Z"/>
          <path class="cls-3" d="M148.24,245.13c3.06-.69,6.16-1.25,9.21-1.98,1.28-.31.74-2.28-.55-1.98-3.06.73-6.15,1.28-9.21,1.98-1.29.29-.74,2.27.55,1.98h0Z"/>
          <path class="cls-3" d="M143.12,217.94c2.44-.46,4.87-1,7.31-1.44.55-.1.85-.76.72-1.26-.16-.57-.71-.82-1.26-.72-2.45.45-4.87.99-7.31,1.44-.54.1-.85.76-.72,1.26.16.57.72.82,1.26.72h0Z"/>
          <path class="cls-3" d="M152.29,358.83c-5.3,3.17-9.2,8.46-10.64,14.47-.31,1.28,1.67,1.83,1.98.55,1.31-5.51,4.83-10.34,9.69-13.25,1.13-.68.1-2.45-1.04-1.77h0Z"/>
          <path class="cls-3" d="M229.66,361.61c4.86,2.91,8.38,7.74,9.69,13.25.31,1.28,2.28.74,1.98-.55-1.43-6.01-5.34-11.3-10.63-14.47-1.14-.68-2.17,1.09-1.04,1.77h0Z"/>
          <path class="cls-3" d="M179.11,302.53c2.83,2.37,6.31,3.88,9.76,5.1,3.57,1.27,7.28,2.22,11.02,2.83,1.58.26,3.19.48,4.8.51,1.32.03,1.32-2.02,0-2.05-2.96-.06-5.91-.67-8.79-1.36-3.63-.87-7.26-2-10.64-3.61-1.65-.79-3.29-1.69-4.7-2.87-1-.84-2.46.6-1.45,1.45h0Z"/>
          <path class="cls-3" d="M219.65,311.14c4.74-.46,9.43-1.5,13.92-3.09,4.59-1.62,9.04-3.79,12.95-6.72,2.09-1.57,4.02-3.33,5.68-5.35.83-1.01-.61-2.47-1.45-1.45-5.84,7.14-14.89,11.21-23.69,13.31-2.44.58-4.91,1.01-7.41,1.26-.55.05-1.03.43-1.03,1.03,0,.51.47,1.08,1.03,1.03h0Z"/>
          <path class="cls-3" d="M152.1,266.58c2.01.53,3.98,1.03,5.74,2.17,1.49.96,2.78,2.26,3.72,3.77,1.03,1.66,1.64,3.52,1.46,5.49-.19,2.12-1.23,4.08-2.4,5.81-.74,1.09,1.03,2.12,1.77,1.04,2.1-3.09,3.47-6.89,2.25-10.59-1.04-3.16-3.33-5.86-6.17-7.54-1.81-1.07-3.81-1.59-5.82-2.12-1.28-.33-1.82,1.64-.55,1.98h0Z"/>
        </g>
        <g>
          <g>
            <path class="cls-7" d="M189.41,213.08c-3.46,1.08-7.28-.55-10.05-3.87-1.3-1.55-2.36-3.48-3.05-5.66-1.31-4.16-.95-8.31.66-11.29,1.05-1.95,2.63-3.39,4.63-4.02.76-.24,1.53-.34,2.31-.34,4.43.07,8.94,4.04,10.78,9.87.13.44.25.87.35,1.3,1.49,6.41-.89,12.51-5.63,14.01Z"/>
            <path class="cls-3" d="M195.04,199.07c-.33,2.85-1.77,5.12-4.01,5.82-3.47,1.09-7.53-2.01-9.08-6.93-1.3-4.12-.42-8.22,1.95-10.07,4.43.07,8.94,4.04,10.78,9.87.13.44.25.87.35,1.3Z"/>
          </g>
          <g>
            <path class="cls-7" d="M224.28,205.14c-3.46,1.09-7.27-.55-10.05-3.87-1.29-1.56-2.36-3.47-3.05-5.66-1.31-4.16-.95-8.31.67-11.29,1.04-1.95,2.63-3.39,4.62-4.02.76-.24,1.54-.35,2.32-.34,4.43.08,8.94,4.04,10.77,9.87.13.44.25.88.36,1.32,1.49,6.4-.89,12.51-5.63,14Z"/>
            <path class="cls-3" d="M229.92,191.15c-.34,2.84-1.78,5.11-4.01,5.81-3.47,1.09-7.53-2.01-9.08-6.94-1.3-4.12-.41-8.22,1.96-10.07,4.43.08,8.94,4.04,10.77,9.87.13.44.25.88.36,1.32Z"/>
          </g>
          <path class="cls-3" d="M180.15,171c-4.49-1.34-9.31.48-11.85,4.39-.72,1.11,1.05,2.14,1.77,1.04,2.05-3.15,5.95-4.52,9.54-3.45,1.27.38,1.81-1.6.55-1.98h0Z"/>
          <path class="cls-3" d="M224.21,163.96c-3.92-2.59-9.05-2.19-12.62.81-.42.36-.37,1.08,0,1.45.42.42,1.02.36,1.45,0,2.89-2.42,7.02-2.54,10.14-.49,1.1.73,2.13-1.05,1.04-1.77h0Z"/>
          <g>
            <path class="cls-3" d="M223.8,222.15c-.12-.26-.26-.5-.41-.74-2.43-3.96-8.3-5.08-12.68-4.18-8.5,1.72-12.32,10.56-11.12,18.3.1.67.27,1.31.47,1.96.73,2.24,2.05,4.29,3.82,5.88.25.22.49.43.76.63,2.07,1.6,4.65,2.56,7.5,2.55.74-.01,1.45-.07,2.12-.21.83-.14,1.6-.38,2.33-.68,1.41-.59,2.65-1.45,3.71-2.51,5.22-5.14,6.45-14.93,3.5-21Z"/>
            <path class="cls-2" d="M218.49,238.13c-3.64-5.34-14.47-6.24-18.42-.65.73,2.24,2.05,4.29,3.82,5.88.25.22.49.43.76.63,2.07,1.6,4.65,2.56,7.5,2.55.74-.01,1.45-.07,2.12-.21.83-.14,1.6-.38,2.33-.68,1.41-.59,2.65-1.45,3.71-2.51-.08-1.81-.97-3.78-1.82-5.02Z"/>
          </g>
        </g>
        <g>
          <path class="cls-5" d="M338.96,78.43c.12,11.9-9.42,21.64-21.32,21.76-11.9.12-21.64-9.42-21.76-21.32-.12-11.9,9.42-21.64,21.32-21.76,11.9-.12,21.64,9.42,21.76,21.32Z"/>
          <g>
            <path class="cls-7" d="M310.51,99.41c-2.09-2.76-3.91-5.75-5.37-8.89-1.37-2.96-2.46-6.15-2.78-9.41-.54-5.42.84-11.13,5.06-14.83,4.37-3.82,10.7-4.54,16.03-2.49,2.67,1.03,5.09,2.85,6.69,5.24,1.77,2.65,2.54,5.82,2.53,8.98-.01,3.78-1.09,7.57-2.54,11.04-1.51,3.61-3.56,6.99-5.83,10.17-.32.45-.08,1.14.37,1.4.52.3,1.08.08,1.4-.37,4.29-6,7.91-12.97,8.57-20.42.3-3.41-.21-6.91-1.69-10.01-1.42-2.97-3.82-5.41-6.7-6.98-5.58-3.04-12.69-3.03-18.11.37-5.26,3.3-7.86,9.2-7.94,15.28-.09,7.13,3.11,14.06,7.04,19.85.49.72.99,1.42,1.51,2.11.33.44.88.67,1.4.37.43-.25.7-.96.37-1.4h0Z"/>
            <path class="cls-7" d="M311.94,114.81c-.84,0-1.62-.32-2.22-.91-.61-.59-.94-1.39-.95-2.24l-.1-10.12c0-.85.31-1.65.91-2.25.59-.61,1.39-.94,2.24-.95l11.06-.11c.85-.02,1.65.31,2.26.91.61.59.94,1.39.95,2.24l.1,10.12c0,.85-.31,1.65-.91,2.25-.59.61-1.39.94-2.24.95l-11.06.11h-.03ZM322.89,100.29h-.01l-11.06.11c-.3,0-.58.12-.79.34-.21.21-.32.5-.32.8l.1,10.12c0,.3.12.58.34.79.21.21.51.34.8.32l11.06-.11c.3,0,.58-.12.79-.34.21-.21.32-.5.32-.8l-.1-10.12c0-.3-.12-.58-.34-.79-.21-.21-.49-.32-.79-.32Z"/>
            <path class="cls-7" d="M312.16,88.9c-1.31-1.41-3.71-5.11-1.26-6.56.87-.51,2.02-.55,2.92-.09,1.31.66,2.1,2.35,2.45,3.69.34,1.29,2.24.74,1.98-.55-.54-2.62,2.96-5.03,5.26-3.86,2.7,1.37.26,5.43-1.13,6.85-.93.94.52,2.39,1.45,1.45,2.47-2.5,4.81-8.27.41-10.21-3.92-1.73-8.86,2.06-7.97,6.32.66-.18,1.32-.36,1.98-.55-.5-1.9-1.68-4.09-3.52-4.98-1.52-.73-3.4-.71-4.86.16-3.83,2.27-1.45,7.31.84,9.78.9.97,2.35-.48,1.45-1.45h0Z"/>
          </g>
        </g>
      </g>
    </g>
  </g>
</svg>