<?xml version="1.0" encoding="UTF-8"?>
<svg id="Layer_2" data-name="Layer 2" xmlns="http://www.w3.org/2000/svg" xmlns:xlink="http://www.w3.org/1999/xlink" viewBox="0 0 422.72 422.72">
  <defs>
    <style>
      .cls-1 {
        fill: none;
      }

      .cls-2 {
        fill: #ff90a9;
      }

      .cls-3 {
        fill: #252226;
      }

      .cls-4 {
        fill: #381a2f;
      }

      .cls-5 {
        fill: #fff;
      }

      .cls-6 {
        fill: #faa4dd;
      }

      .cls-7 {
        fill: #cb73ee;
      }

      .cls-8 {
        clip-path: url(#clippath);
      }
    </style>
    <clipPath id="clippath">
      <circle class="cls-1" cx="211.36" cy="211.36" r="211.36"/>
    </clipPath>
  </defs>
  <g id="Layer_1-2" data-name="Layer 1">
    <g class="cls-8">
      <circle class="cls-4" cx="211.36" cy="211.36" r="211.36"/>
      <g>
        <g>
          <g>
            <g>
              <path class="cls-6" d="M204.42,247.59l-28.65,91.93-3.88,12.45-25.29-7.88c.18-2.43.57-4.83.89-6.9l.71-2.29,29.79-95.56,26.43,8.25Z"/>
              <path class="cls-6" d="M189.77,357.69c-2.64,3.08-9.08,2.27-12.51,2.16-6.15-.17-12.29-.4-18.43-.53-2.14-.04-4.32-.24-6.3-1.07-3.93-1.65-5.61-5.47-5.95-9.51-.4-4.79.15-9.76,1.81-14.29.07-.2,1.78-.54,2.49-.62,2.11-.27,4.22-.54,6.33-.81,1.82-.23,3.73-.77,5.52-.24,6.06,1.83,9.39,3.78,13.05,6.73,2.34,1.89,4.8,4.16,8.19,7.08,1.36,1.16,5.34,4.61,6.11,7.15.55,1.83.77,2.69-.31,3.95Z"/>
            </g>
            <g>
              <path class="cls-6" d="M239.4,243.82l38.58,88.23,5.23,11.95-24.27,10.62c-1.45-1.96-2.73-4.03-3.85-5.8l-.96-2.19-40.09-91.71,25.37-11.08Z"/>
              <path class="cls-6" d="M299.81,342.49c-1.12,3.9-7.31,5.84-10.48,7.18-5.67,2.4-11.34,4.75-16.98,7.19-1.97.86-4.02,1.58-6.17,1.65-4.26.14-7.38-2.63-9.37-6.17-2.36-4.19-3.93-8.94-4.3-13.74-.02-.22,1.39-1.24,2-1.6,1.81-1.12,3.61-2.25,5.42-3.37,1.56-.96,3.07-2.25,4.92-2.51,6.27-.86,10.12-.47,14.66.69,2.91.74,6.1,1.79,10.4,3.02,1.72.49,6.78,1.96,8.53,3.95,1.26,1.43,1.82,2.12,1.36,3.72Z"/>
            </g>
          </g>
          <path class="cls-6" d="M206.83,54.14c1.1-2.11,4.23-2.11,5.32,0l57.97,111.43,58.48,112.42c.99,1.9-.45,4.13-2.66,4.13h-116.45s-116.45,0-116.45,0c-2.21,0-3.65-2.23-2.66-4.13l58.48-112.42,57.97-111.43Z"/>
          <g>
            <path class="cls-6" d="M80.15,181.06c1.73-2.05,7.28-6.49,7.28-6.49l69.63,53.76-17.05,21.82-53.1-41.49c-9.06-7.08-14.03-19-6.77-27.6Z"/>
            <rect class="cls-6" x="89.65" y="142.01" width="27.69" height="52.76" transform="translate(99.28 -29.22) rotate(30.35)"/>
            <g>
              <path class="cls-6" d="M140.97,107.38c-2.81-.4-5.91.54-8.5,1.58-2.72,1.1-5.24,2.61-7.56,4.39-4.67,3.57-8.51,8.08-11.99,12.79-4.37,5.91-8.08,12.25-11.58,18.7-.19.11.39,8.15,3.15,10.54,2.65,2.28,6.13,3.55,9.63,3.53,3.66-.02,7.21-1.47,10.06-3.72,3-2.36,5.75-5.88,6.15-9.78.27-2.63-.12-5.39-.26-8.03-.14-2.68-.28-5.37-.42-8.05,2.04-5.16,5.93-9.25,10.9-11.73,2.29-1.15,5-2.77,5-5.69,0-2.51-2.29-4.2-4.58-4.52Z"/>
              <path class="cls-6" d="M144.95,132.56c-.03-.47-.12-.95-.3-1.42-2.33-6.26-11.01-3.54-14.59-.16-2.59,2.44-3.3,6.82-1.98,10.07,1.34,3.28,3.89,4.74,7.21,3.22,3.39-1.56,6.74-4.49,8.57-7.74.69-1.23,1.18-2.6,1.09-3.98Z"/>
              <path class="cls-6" d="M135.74,132.81c-1.16-2.74-3.45-4.51-6.33-5.17-6.56-1.49-14.08,1.26-19.3,5.17-.39.29-.49.73-.41,1.11-1.16,1.22-1.74,2.96-1.51,4.72.36,2.77,2.41,5.1,4.79,6.45,2.47,1.4,5.27,1.76,8.03,1.25,1.63-.3,2.99-.59,3.87,1.05.56,1.03.88,2.18,1.66,3.09,1.84,2.12,5,1.63,6.85-.22,2.08-2.09,2.92-5.47,3.3-8.3.4-3.01.25-6.32-.95-9.15Z"/>
              <path class="cls-6" d="M131.71,140c-1.16-2.74-3.45-4.51-6.33-5.17-6.56-1.49-14.08,1.26-19.3,5.17-.39.29-.49.73-.41,1.11-1.16,1.22-1.74,2.96-1.51,4.72.36,2.77,2.42,5.1,4.79,6.45,2.47,1.4,5.27,1.76,8.03,1.25,1.63-.3,2.99-.59,3.87,1.05.56,1.03.88,2.18,1.66,3.09,2.77,3.21,6.44-.94,7.99-3.34,2.7-4.19,3.14-9.74,1.2-14.32Z"/>
            </g>
          </g>
          <g>
            <path class="cls-6" d="M341.65,212.13l-52.27,42.52-17.48-21.49,41.31-33.21,23.93-19.23c2.01.96,4.01,1.95,6.03,2.89,1.9.88,3.73,2.17,5.35,3.53,5.9,4.94,2.16,14.35-1.48,19.33-1.54,2.11-3.37,4.01-5.39,5.65Z"/>
            <path class="cls-6" d="M348.18,186.86l-13.22,23.84-24.3-12.96-17.28-8.86,13.02-24.44,28.98,15.09c1.57.82,3.15,1.65,4.72,2.47,1.39.73,2.83,1.39,4.2,2.16.3.17,3.56,2.17,3.87,2.69Z"/>
          </g>
        </g>
        <g>
          <rect class="cls-7" x="291.49" y="155.57" width="15.83" height="41.39" rx="3.94" ry="3.94" transform="translate(-14.97 324.2) rotate(-55.69)"/>
          <path class="cls-7" d="M279.05,171.99c-.5.24-1.09-.2-1-.75l1.04-43.5c.08-.5,9.13-15.72,9.55-15.41l21.92,16.35,21.92,16.35c.42.31-7.88,12.23-8.33,12.45l-45.11,14.5Z"/>
          <path class="cls-7" d="M335.45,148.04c-.46.81-.97,1.59-1.55,2.34-8.55,11.25-26.79,11.78-40.74,1.18-13.01-9.89-17.71-25.96-11.34-37.2.47-.81.98-1.6,1.56-2.36,8.55-11.25,26.79-11.78,40.74-1.18,13.01,9.89,17.69,25.98,11.33,37.22Z"/>
          <path class="cls-7" d="M281.37,155.58h8.26c.86,0,1.55.7,1.55,1.55v13.71c0,.86-.7,1.55-1.55,1.55h-15.45c-.86,0-1.55-.7-1.55-1.55v-6.52c0-4.82,3.92-8.74,8.74-8.74Z" transform="translate(-10.71 307.99) rotate(-56.39)"/>
          <path class="cls-3" d="M278.18,155.25c3.86,5.26,9.74,8.42,15.88,10.28,1.27.38,1.81-1.6.55-1.98-5.58-1.69-11.14-4.53-14.66-9.34-.33-.45-.89-.67-1.4-.37-.44.26-.7.95-.37,1.4h0Z"/>
          <path class="cls-3" d="M335.45,148.04c-7.94,6.1-22.08,1.43-33.72-5.48-12.35-7.35-20.76-13.12-19.91-28.2.47-.81.98-1.6,1.56-2.36,8.55-11.25,26.79-11.78,40.74-1.18,13.01,9.89,17.69,25.98,11.33,37.22Z"/>
          <path class="cls-7" d="M315.67,143.74c-3.02,5.07-10.45,6.2-16.6,2.54-6.14-3.66-8.67-10.74-5.65-15.81s10.45-6.2,16.6-2.54c6.14,3.66,8.67,10.74,5.65,15.81Z"/>
          <path class="cls-3" d="M292.11,137.5c5.27,4.87,11.56,8.85,18.45,10.95,1.27.39,1.81-1.59.55-1.98-6.55-1.99-12.54-5.79-17.54-10.42-.97-.9-2.42.55-1.45,1.45h0Z"/>
          <g>
            <path class="cls-5" d="M306.1,96.55c0-3.93,0-7.86,0-11.8,0-1.32-2.05-1.32-2.05,0,0,3.93,0,7.86,0,11.8,0,1.32,2.05,1.32,2.05,0h0Z"/>
            <path class="cls-5" d="M327.83,100.06c1.96-3.23,3.98-6.41,6.24-9.44.33-.44.07-1.15-.37-1.4-.52-.31-1.07-.08-1.4.37-2.26,3.03-4.28,6.21-6.24,9.44-.69,1.13,1.09,2.16,1.77,1.04h0Z"/>
            <path class="cls-5" d="M341.89,117.74c3.75-1.19,7.53-2.19,11.36-3.09,1.28-.3.74-2.28-.55-1.98-3.83.9-7.61,1.9-11.36,3.09-1.25.4-.72,2.38.55,1.98h0Z"/>
          </g>
          <path class="cls-7" d="M281.76,120.45c.45-2.87,1.48-5.65,3.3-7.94,1.66-2.1,3.83-3.7,6.22-4.88,4.79-2.35,10.39-2.99,15.66-2.57,6.41.51,12.75,3.08,17.94,6.95,5.74,4.28,10.14,10.45,11.73,17.49,1.46,6.46.64,14.48-3.95,19.58-.63.7-1.32,1.35-2.06,1.93-.44.34-.67.88-.37,1.4.25.43.96.71,1.4.37,3.09-2.37,5.24-5.56,6.43-9.26,1.03-3.22,1.39-6.75,1.17-10.12-.54-8.1-4.62-15.57-10.61-20.95-5.36-4.81-12.21-8.15-19.36-9.17-5.64-.8-11.64-.41-16.97,1.69-2.72,1.07-5.28,2.57-7.37,4.64-2.2,2.18-3.78,4.92-4.62,7.89-.22.79-.39,1.6-.52,2.41-.09.55.14,1.1.72,1.26.49.13,1.18-.17,1.26-.72h0Z"/>
        </g>
        <g>
          <path class="cls-6" d="M285.74,180.44c-.17,1.28.02,2.66.62,3.93,1,2.15,2.89,3.76,4.91,5,3.23,1.99,14.94,8.81,15.43.58.25-4.22-2.85-7.89-5.96-10.35-2.59-2.05-6.21-3.93-9.61-4-3.11-.06-5.03,2.17-5.38,4.83Z"/>
          <path class="cls-6" d="M310.61,162.42c-1.52-2.59-4.39-4.82-6.76-5.81-6.9-2.87-14.71,3.32-18.57,8.62-3.59,4.92-2.79,13.58,3.08,16.66.6.31,1.27.52,1.94.47,2.35-.18,2.31-2.95,2.79-4.68,1.03-3.73,4.73-5.71,8.4-5.85,1.65-.06,3.31.3,4.94-.05,1.48-.31,2.79-1.17,3.8-2.29,2.02-2.23,1.72-4.79.38-7.07Z"/>
          <path class="cls-6" d="M315.92,165.61c-1.52-2.59-4.39-4.82-6.77-5.81-6.9-2.87-14.71,3.32-18.57,8.62-3.59,4.92-2.79,13.58,3.08,16.66.6.31,1.27.52,1.94.47,2.35-.18,2.31-2.95,2.79-4.68,1.03-3.73,4.73-5.71,8.4-5.85,1.65-.06,3.31.3,4.94-.05,1.48-.31,2.79-1.17,3.8-2.29,2.02-2.23,1.72-4.79.38-7.07Z"/>
          <path class="cls-6" d="M321.44,169.82c-1.52-2.59-4.39-4.82-6.76-5.81-6.9-2.87-14.71,3.32-18.57,8.62-3.59,4.92-2.79,13.58,3.08,16.66.6.31,1.27.52,1.94.47,2.35-.18,2.31-2.95,2.79-4.68,1.03-3.73,4.73-5.71,8.4-5.85,1.65-.06,3.31.3,4.94-.05,1.48-.31,2.79-1.17,3.8-2.29,2.02-2.23,1.72-4.79.38-7.07Z"/>
        </g>
        <g>
          <path class="cls-3" d="M171.3,346.13c4.86,2.91,8.38,7.74,9.69,13.25.31,1.28,2.28.74,1.98-.55-1.43-6.01-5.34-11.3-10.64-14.47-1.14-.68-2.17,1.09-1.04,1.77h0Z"/>
          <path class="cls-3" d="M278.3,339.68c5.62.62,10.82,3.63,14.29,8.07.34.44,1.09.36,1.45,0,.43-.43.34-1.01,0-1.45-3.82-4.89-9.59-7.99-15.74-8.67-.55-.06-1.03.51-1.03,1.03,0,.61.47.96,1.03,1.03h0Z"/>
          <path class="cls-3" d="M165.51,283.23h27.09c1.32,0,1.32-2.05,0-2.05h-27.09c-1.32,0-1.32,2.05,0,2.05h0Z"/>
          <path class="cls-3" d="M226.99,283.23h28.09c1.32,0,1.32-2.05,0-2.05h-28.09c-1.32,0-1.32,2.05,0,2.05h0Z"/>
          <path class="cls-3" d="M115.08,232.23c2.62,1.89,5.29,3.71,7.91,5.6.45.32,1.14.08,1.4-.37.3-.52.08-1.08-.37-1.4-2.62-1.89-5.29-3.71-7.91-5.6-.45-.32-1.14-.08-1.4.37-.3.52-.08,1.08.37,1.4h0Z"/>
          <path class="cls-3" d="M128.23,207.17c2.62,1.89,5.29,3.71,7.91,5.6.45.32,1.14.08,1.4-.37.3-.52.08-1.08-.37-1.4-2.62-1.89-5.29-3.71-7.91-5.6-.45-.32-1.14-.08-1.4.37-.3.52-.08,1.08.37,1.4h0Z"/>
          <path class="cls-3" d="M294.33,214.21c-2.73,2.05-5.39,4.22-8.06,6.35-.43.35-.36,1.09,0,1.45.43.43,1.02.35,1.45,0,1.63-1.3,3.25-2.6,4.88-3.89.53-.42,1.07-.84,1.61-1.26.05-.04.11-.08.16-.13-.23.18-.04.03,0,0,.12-.09.24-.18.36-.27.21-.16.42-.32.63-.48.44-.33.67-.89.37-1.4-.26-.44-.96-.7-1.4-.37h0Z"/>
          <path class="cls-3" d="M307.3,238.71c-2.26,1.69-4.49,3.4-6.68,5.17-.42.34-.38,1.1,0,1.45.45.41,1,.36,1.45,0,.86-.69,1.72-1.38,2.58-2.07.29-.23.57-.45.86-.67.05-.04.29-.23.04-.03.06-.05.13-.1.19-.14.12-.09.23-.18.35-.27.74-.56,1.5-1.11,2.25-1.67.43-.32.69-.9.37-1.4-.27-.42-.94-.71-1.4-.37h0Z"/>
          <path class="cls-3" d="M105.87,190c-.29.58-.6,1.14-.96,1.68-.17.26-.35.52-.53.78-.05.07-.1.13-.15.2-.06.08.06-.07-.05.07-.1.13-.21.26-.31.38-.4.48-.83.94-1.29,1.37-.24.23-.49.45-.74.66-.11.1-.23.19-.34.28-.04.03-.18.14-.07.05-.08.06-.16.12-.24.18-.43.32-.69.9-.37,1.4.27.43.94.71,1.4.37,2.27-1.68,4.15-3.85,5.41-6.39.24-.48.14-1.13-.37-1.4-.46-.24-1.15-.14-1.4.37h0Z"/>
          <path class="cls-3" d="M124.45,157.58c-1.93-.21-3.29-1.72-3.74-3.52-.5-2,.08-4.09.9-5.92.23-.5.15-1.1-.37-1.4-.44-.26-1.17-.14-1.4.37-1.1,2.44-1.83,5.19-1.02,7.84.8,2.61,2.91,4.4,5.62,4.69.55.06,1.03-.51,1.03-1.03,0-.6-.47-.97-1.03-1.03h0Z"/>
          <path class="cls-3" d="M119.2,149.22c-.13.03-.26.05-.39.07.19-.03-.03,0-.07,0-.07,0-.13.01-.2.02-.28.02-.56.02-.83,0-.13,0-.26-.02-.39-.03-.08,0-.13-.02-.02,0-.08-.01-.16-.03-.24-.04-.27-.05-.54-.12-.81-.2-.12-.04-.25-.08-.37-.13-.06-.02-.12-.05-.18-.07.1.04.04.02-.03-.01-.25-.12-.5-.25-.73-.39-.13-.08-.25-.16-.37-.24-.05-.04-.11-.08-.16-.12.09.07.02.02-.02-.02-.23-.19-.44-.39-.64-.61-.37-.39-1.09-.4-1.45,0-.39.42-.39,1.03,0,1.45,1.88,2.02,4.77,2.87,7.44,2.3.53-.11.88-.76.72-1.26-.18-.55-.7-.84-1.26-.72h0Z"/>
          <path class="cls-3" d="M132.32,151.04c.76-3.6.88-7.76-1.4-10.87-2.5-3.4-6.68-4.47-10.59-5.31-1.29-.28-1.84,1.7-.55,1.98,3.33.72,7.2,1.51,9.38,4.39,1.98,2.62,1.83,6.21,1.18,9.26-.27,1.29,1.7,1.84,1.98.55h0Z"/>
          <path class="cls-3" d="M132.18,130.58c3.11,3.42,2.97,8.4,2.85,12.72-.04,1.32,2.02,1.32,2.05,0,.13-4.94.07-10.3-3.45-14.17-.89-.98-2.34.47-1.45,1.45h0Z"/>
          <path class="cls-3" d="M130.05,127.13c-1.68-.87-3.48-1.48-5.35-1.78-.53-.08-1.13.14-1.26.72-.11.49.15,1.17.72,1.26.87.14,1.73.35,2.58.62.41.13.82.29,1.22.45.07.03.06.02-.03-.01.06.02.11.05.17.07.1.04.2.09.3.13.21.1.42.2.63.31.48.25,1.14.14,1.4-.37.25-.47.14-1.14-.37-1.4h0Z"/>
          <path class="cls-3" d="M321.29,173.52c-.11.8-.29,1.6-.55,2.37-.06.19-.13.37-.2.55-.04.1-.08.21-.12.31.08-.16,0-.01-.03.06-.17.38-.36.76-.57,1.13-.26.47-.13,1.14.37,1.4.48.26,1.12.13,1.4-.37.85-1.52,1.43-3.19,1.67-4.91.04-.29.05-.53-.1-.79-.12-.21-.37-.42-.61-.47-.48-.11-1.18.15-1.26.72h0Z"/>
          <path class="cls-3" d="M313.81,163.67c-3.44.47-6.81,1.34-10.06,2.54-2.95,1.09-5.71,2.53-7.72,5.02-1.82,2.26-2.93,5.06-2.82,7.99.11,2.81,1.25,5.78,3.5,7.57,1.31,1.04,3.03,1.67,4.67,1.04,1.56-.6,2.52-2.02,3.35-3.4.68-1.13-1.09-2.17-1.77-1.04-.55.91-1.18,2.05-2.21,2.49-1.05.45-2.21-.17-2.98-.87-1.75-1.6-2.56-4.05-2.51-6.38.05-2.36,1.05-4.64,2.6-6.39,1.8-2.04,4.14-3.2,6.66-4.12,3.18-1.16,6.48-2,9.84-2.46.55-.08.85-.78.72-1.26-.16-.59-.71-.79-1.26-.72h0Z"/>
          <path class="cls-3" d="M306.7,158.56c-3.16.17-6.19.91-9.07,2.22-2.64,1.2-5.12,2.76-7.06,4.94-3.76,4.25-5.95,10.98-3.25,16.33,1.41,2.79,5.13,6.14,8.19,3.48,1-.87-.46-2.31-1.45-1.45-.86.75-2.11.22-2.88-.39-1.01-.8-1.79-1.93-2.3-3.11-.98-2.27-.83-4.9-.19-7.24.63-2.33,1.83-4.51,3.45-6.3,1.67-1.85,3.74-3.15,5.96-4.22,2.69-1.3,5.6-2.03,8.59-2.2,1.31-.07,1.32-2.12,0-2.05h0Z"/>
          <path class="cls-3" d="M305.37,191.02c-.14.28-.3.54-.49.78.05-.07.11-.14.16-.21-.25.32-.53.6-.84.85.07-.05.14-.11.21-.16-.27.21-.56.39-.87.53-.22.1-.41.39-.47.61-.07.25-.04.57.1.79.14.22.35.41.61.47.09.01.18.02.27.04.19,0,.36-.05.52-.14.55-.26,1.06-.63,1.49-1.06.43-.43.81-.93,1.08-1.48.12-.25.18-.51.1-.79-.07-.24-.25-.5-.47-.61-.24-.13-.53-.19-.79-.1-.24.08-.5.23-.61.47h0Z"/>
          <path class="cls-3" d="M314.78,200.75c7.15.77,14.47-.2,21.16-2.83.52-.2.87-.69.72-1.26-.13-.49-.74-.92-1.26-.72-6.55,2.57-13.62,3.52-20.62,2.76-.55-.06-1.03.51-1.03,1.03,0,.6.47.97,1.03,1.03h0Z"/>
          <path class="cls-3" d="M308.89,179.91c.25-1.59-.02-3.22-.88-4.59-.28-.45-.93-.67-1.4-.37-.46.29-.67.92-.37,1.4.09.14.18.29.25.45.03.06.06.11.08.17.02.04.04.08.05.12-.06-.15-.07-.17-.03-.07.11.29.2.58.26.89.02.07.03.15.04.22,0,.04.01.08.02.13-.02-.17-.03-.19-.01-.08.01.15.03.3.03.45,0,.15,0,.3,0,.45,0,.09-.01.17-.02.26,0,.04,0,.08-.01.13.02-.17.03-.19,0-.08-.04.28-.05.53.1.79.12.21.37.42.61.47.49.11,1.17-.15,1.26-.72h0Z"/>
        </g>
        <g>
          <g>
            <path class="cls-5" d="M193.22,200.91c-3.78.48-7.43-1.9-9.67-5.85-1.06-1.85-1.8-4.04-2.11-6.42-.58-4.54.54-8.76,2.76-11.55,1.45-1.82,3.34-3.02,5.52-3.31.83-.11,1.65-.08,2.45.08,4.57.89,8.5,5.82,9.33,12.19.06.48.1.94.13,1.41.37,6.9-3.22,12.77-8.4,13.45Z"/>
            <path class="cls-3" d="M201.62,187.46c-.86,2.88-2.77,4.97-5.21,5.28-3.79.49-7.42-3.46-8.11-8.83-.58-4.5,1.08-8.57,3.87-10.05,4.57.89,8.5,5.82,9.33,12.19.06.48.1.94.13,1.41Z"/>
          </g>
          <g>
            <path class="cls-5" d="M230.74,199.11c-3.78.49-7.42-1.9-9.67-5.85-1.05-1.85-1.8-4.03-2.11-6.42-.58-4.54.54-8.76,2.77-11.55,1.44-1.82,3.34-3.02,5.51-3.31.83-.11,1.65-.08,2.46.08,4.57.89,8.5,5.82,9.32,12.19.06.48.1.96.13,1.43.36,6.89-3.22,12.76-8.4,13.43Z"/>
            <path class="cls-3" d="M239.14,185.68c-.87,2.87-2.78,4.95-5.21,5.27-3.78.48-7.42-3.47-8.11-8.84-.58-4.5,1.09-8.57,3.88-10.05,4.57.89,8.5,5.82,9.32,12.19.06.48.1.96.13,1.43Z"/>
          </g>
          <g>
            <path class="cls-3" d="M226.79,221.04c-.11-.36-.23-.71-.37-1.05-2.25-5.63-8.4-7.74-13.85-7.26-10.56.93-17.45,11.73-17.33,22.16.05,4.03,1.43,7.99,3.81,11.05.26.33.52.65.81.95,2.23,2.44,5.16,4.13,8.61,4.56.89.11,1.76.13,2.59.07,1.03-.06,2-.25,2.93-.53,10.57-3.27,15.82-19.73,12.8-29.96Z"/>
            <path class="cls-2" d="M214.45,236.6c-.07-.08-.14-.15-.22-.23-3.92-4.11-9.73.48-12.04,4.44-1.09,1.86-1.83,3.94-2.34,6.08,2.23,2.44,5.16,4.13,8.61,4.56.89.11,1.76.13,2.59.07.03-1.3.12-2.58.48-3.84.71-2.47,2.62-3.15,3.7-5.19,1.04-1.95.56-4.32-.79-5.91Z"/>
          </g>
          <path class="cls-3" d="M193.49,162.95c-4.7-1.13-8.86,1.97-11.22,5.78-.7,1.13,1.08,2.16,1.77,1.04,1.86-3,5.14-5.75,8.91-4.84,1.28.31,1.83-1.67.55-1.98h0Z"/>
          <path class="cls-3" d="M225.7,163.92c3.55-1.19,7.76.16,9.86,3.3.73,1.09,2.51.07,1.77-1.04-2.58-3.88-7.73-5.73-12.17-4.24-1.25.42-.71,2.4.55,1.98h0Z"/>
        </g>
      </g>
    </g>
  </g>
</svg>