<?xml version="1.0" encoding="UTF-8"?>
<svg id="Layer_2" data-name="Layer 2" xmlns="http://www.w3.org/2000/svg" xmlns:xlink="http://www.w3.org/1999/xlink" viewBox="0 0 422.72 422.72">
  <defs>
    <style>
      .cls-1 {
        fill: none;
      }

      .cls-2 {
        fill: #ff90a9;
      }

      .cls-3 {
        fill: #fd663b;
      }

      .cls-4 {
        fill: #252226;
      }

      .cls-5 {
        fill: #2d211f;
      }

      .cls-6 {
        fill: #fff;
      }

      .cls-7 {
        clip-path: url(#clippath);
      }
    </style>
    <clipPath id="clippath">
      <circle class="cls-1" cx="211.36" cy="211.36" r="211.36"/>
    </clipPath>
  </defs>
  <g id="Layer_1-2" data-name="Layer 1">
    <g class="cls-7">
      <circle class="cls-5" cx="211.36" cy="211.36" r="211.36"/>
      <g>
        <path class="cls-3" d="M207.69,50.76l40.8,78.44,87.75,10.86c2.11.26,3,2.83,1.51,4.34l-62,63.04,16.78,86.81c.4,2.09-1.76,3.73-3.66,2.78l-79.11-39.48-77.37,42.79c-1.86,1.03-4.09-.52-3.78-2.62l13.1-87.44-64.6-60.36c-1.55-1.45-.77-4.05,1.33-4.4l87.21-14.56,37.45-80.1c.9-1.93,3.62-1.98,4.6-.1Z"/>
        <g>
          <g>
            <path class="cls-6" d="M197.68,163.71c0,7.45-4.46,13.49-9.97,13.49-3.76,0-7.02-2.8-8.72-6.94-.8-1.94-1.25-4.17-1.25-6.54,0-4.51,1.64-8.5,4.16-10.95,1.64-1.6,3.65-2.54,5.82-2.54,5.5,0,9.97,6.04,9.97,13.49Z"/>
            <path class="cls-4" d="M194.52,162.79c0,5.34-3.05,9.67-6.82,9.67s-6.82-4.33-6.82-9.67,3.05-9.67,6.82-9.67,6.82,4.33,6.82,9.67Z"/>
          </g>
          <g>
            <path class="cls-6" d="M237.68,163.07c0,7.45-4.46,13.49-9.97,13.49-3.76,0-7.02-2.8-8.72-6.94-.8-1.94-1.25-4.17-1.25-6.54,0-4.51,1.64-8.5,4.16-10.95,1.64-1.6,3.65-2.54,5.82-2.54,5.5,0,9.97,6.04,9.97,13.49Z"/>
            <path class="cls-4" d="M234.32,162.79c0,5.34-3.05,9.67-6.82,9.67s-6.82-4.33-6.82-9.67,3.05-9.67,6.82-9.67,6.82,4.33,6.82,9.67Z"/>
          </g>
          <g>
            <path class="cls-4" d="M232.22,195.88c-2.68-10.45-20.24-7.33-27.55-5.62-5.41,1.26-13.29,3.84-14.61,9.87-2.25,10.25,8.06,18.07,18.84,19.39,5.28.66,10.7-.26,14.79-3.21,2.55-1.85,4.74-4.21,6.32-6.88,2.4-4.06,3.42-8.82,2.21-13.54Z"/>
            <path class="cls-2" d="M219.68,205.46c-6.11.37-13.33,6.19-11.2,12.95.12.39.27.76.43,1.1,5.28.66,10.7-.26,14.79-3.21,2.55-1.85,4.74-4.21,6.32-6.88-2.47-2.82-6.69-4.18-10.34-3.96Z"/>
          </g>
          <path class="cls-4" d="M190.14,137.85c-4.63-2.15-10.21-1.02-13.46,2.98-.35.43-.42,1.03,0,1.45.36.36,1.1.43,1.45,0,2.64-3.24,7.13-4.44,10.97-2.65.5.23,1.11.14,1.4-.37.26-.44.14-1.17-.37-1.4h0Z"/>
          <path class="cls-4" d="M224.62,138.97c3.84-2.22,8.49-1.5,11.63,1.59.94.93,2.39-.52,1.45-1.45-3.79-3.73-9.48-4.59-14.12-1.91-1.14.66-.11,2.43,1.04,1.77h0Z"/>
        </g>
        <g>
          <path class="cls-3" d="M64.14,206.02c.85-2.55,4.36-8.73,4.36-8.73l84.6,24.1-7.74,26.59-64.7-18.84c-11.04-3.22-20.08-12.44-16.52-23.12Z"/>
          <rect class="cls-3" x="54.61" y="170.82" width="27.69" height="43.95" transform="translate(-78.58 50.54) rotate(-26.4)"/>
          <path class="cls-3" d="M75.54,178.76c-2.44-3.42-2.35-7.68-2.17-11.71.14-3.24.15-6.46-.83-9.58-.98-3.12-2.69-5.95-3.98-8.94-1.3-3.02-1.89-6.25-2.54-9.45-.47-2.31-.74-4.84-2.24-6.77-.7-.9-1.7-1.61-2.82-1.78-3.8-.58-5.63,3.96-6.12,7-.45,2.77-.28,5.62.4,8.34.59,2.31,2.13,4.41,2.28,6.79.14,2.2-.59,4.38-1.13,6.48-1.1,4.27-1.37,8.21.3,12.38,1.59,3.96,3.94,8.22,7.91,10.15,2.72,1.33,8.99,2.63,10.38-1.21.03-.08.02-.15.03-.23.59-.2,1-.82.54-1.47Z"/>
          <path class="cls-3" d="M61.31,156.17c-.16-.48-.42-.93-.77-1.3-.32-.34-1.03-.64-1.21-1.08-.19-.47.18-1.22.24-1.72.06-.44.07-.88-.03-1.32-.18-.81-.68-1.5-1.46-1.75-.22-.22-.53-.36-.92-.29-2.7.47-5.38,1.03-8.04,1.7-2.4.6-4.86,1.19-7.14,2.15-1.95.82-3.79,2.08-4.78,4.01-.9,1.76-1.06,3.9.04,5.61,2.6,4.05,8.81,3.52,12.91,2.87,2.36-.38,4.67-1.06,6.86-2.03,1.81-.8,3.64-2.02,4.28-4,.29-.91.32-1.95,0-2.86Z"/>
          <path class="cls-3" d="M63.4,165.37c-.16-.48-.42-.93-.77-1.3-.32-.34-1.03-.64-1.21-1.08-.18-.47.18-1.22.24-1.72.06-.44.07-.88-.03-1.32-.18-.81-.68-1.5-1.46-1.75-.22-.22-.53-.36-.91-.29-2.7.47-5.38,1.03-8.04,1.7-2.4.6-4.86,1.19-7.14,2.15-1.95.82-3.79,2.08-4.78,4.01-.9,1.76-1.06,3.9.04,5.61,2.6,4.05,8.81,3.52,12.91,2.87,2.36-.38,4.67-1.06,6.86-2.03,1.81-.8,3.64-2.02,4.28-4,.29-.91.32-1.95,0-2.86Z"/>
          <path class="cls-3" d="M63.85,173.47c-.15-.48-.38-.93-.69-1.3-.29-.34-.93-.64-1.09-1.08-.17-.47.16-1.22.22-1.72.05-.44.06-.88-.02-1.32-.16-.81-.61-1.5-1.31-1.75-.2-.22-.48-.36-.82-.29-2.43.47-4.84,1.03-7.23,1.7-2.16.6-4.37,1.19-6.42,2.15-1.76.82-3.41,2.08-4.3,4.01-.81,1.76-.95,3.9.04,5.61,2.34,4.05,7.93,3.52,11.61,2.87,2.12-.38,4.2-1.06,6.17-2.03,1.63-.8,3.28-2.02,3.85-4,.26-.91.29-1.95,0-2.86Z"/>
          <path class="cls-3" d="M322.11,247.12c1.67-2.1,5.26-8.12,5.26-8.12l-46.75-40.1-17.85,21.17,36.06,30.41c6.15,5.19,16.26,5.43,23.28-3.36Z"/>
          <rect class="cls-3" x="314.01" y="204.93" width="27.69" height="43.95" transform="translate(334.91 625.57) rotate(-125.7)"/>
          <path class="cls-3" d="M330.87,226.16c.02.08.03.15.07.23,2.11,3.72,8.39,1.27,10.98-.58,3.78-2.69,5.48-7.49,6.43-11.85,1.01-4.59.03-8.6-1.86-12.81-.93-2.07-2.06-4.19-2.31-6.48-.26-2.47.97-4.91,1.18-7.39.24-2.91-.09-5.89-1.04-8.66-1.04-3.04-3.74-7.4-7.58-6.13-1.14.38-2.05,1.28-2.62,2.33-1.22,2.25-1.06,4.9-1.14,7.37-.12,3.42-.17,6.85-.99,10.19-.81,3.31-2.1,6.52-2.57,9.91-.47,3.39.1,6.7.81,10.01.88,4.12,1.72,8.49-.21,12.44-.36.74.18,1.31.82,1.42Z"/>
          <path class="cls-3" d="M340.7,203.98c.96,1.84,2.97,2.74,4.89,3.22,2.32.59,4.71.88,7.1.85,4.15-.04,10.36-.56,12.25-4.99.8-1.87.28-3.96-.9-5.54-1.3-1.74-3.32-2.67-5.38-3.15-2.41-.57-4.94-.74-7.4-.93-2.73-.21-5.47-.32-8.21-.33-.39,0-.67.19-.85.44-.73.39-1.11,1.15-1.14,1.97-.02.45.06.88.19,1.3.15.47.63,1.16.53,1.65-.1.47-.75.88-1.01,1.27-.28.42-.46.91-.54,1.41-.15.95.05,1.97.49,2.81Z"/>
          <path class="cls-3" d="M340.18,213.41c.96,1.84,2.97,2.74,4.89,3.22,2.32.59,4.71.88,7.1.85,4.15-.04,10.36-.56,12.25-4.99.8-1.87.29-3.96-.9-5.54-1.3-1.74-3.32-2.67-5.38-3.15-2.41-.57-4.94-.74-7.4-.93-2.73-.21-5.47-.32-8.21-.33-.39,0-.67.19-.85.44-.73.39-1.11,1.15-1.14,1.97-.02.45.06.88.19,1.3.15.47.63,1.16.53,1.65-.1.47-.75.88-1.01,1.27-.28.42-.46.91-.54,1.41-.15.95.05,1.97.49,2.81Z"/>
          <path class="cls-3" d="M341.09,221.47c.9,1.85,2.73,2.78,4.47,3.3,2.1.63,4.27.95,6.42.97,3.74.03,9.34-.39,10.97-4.77.69-1.85.19-3.94-.9-5.54-1.2-1.75-3.04-2.71-4.91-3.23-2.19-.6-4.47-.82-6.69-1.05-2.47-.26-4.94-.41-7.42-.46-.35,0-.6.17-.76.42-.65.37-.98,1.12-1,1.95-.01.44.07.88.2,1.3.14.47.59,1.17.5,1.65-.08.47-.66.86-.89,1.25-.25.42-.4.9-.47,1.4-.12.94.07,1.96.49,2.81Z"/>
          <path class="cls-3" d="M152.37,329.77c2.54.86,9.49,2.03,9.49,2.03l25.49-66.75-25.94-9.69-19.16,51.27c-3.27,8.75-.54,19.53,10.12,23.14Z"/>
          <rect class="cls-3" x="151.48" y="313.16" width="27.69" height="43.95" transform="translate(-133.66 110.95) rotate(-26.88)"/>
          <rect class="cls-3" x="257.2" y="253" width="27.69" height="109.34" transform="translate(651.58 460.38) rotate(153.24)"/>
          <path class="cls-3" d="M187.26,347.97c-.12-.16-2.27-1.91-2.44-1.93-.19-.02-.38,0-.57,0-1.02-.01-1.92-.68-2.94-.75-1.31-.1-2.65.39-3.81.93-4.4,2.05-8.24,4.95-12.75,6.88-6.22,2.67-13.76,6.04-17.12,12.34-1.68,3.16-.17,7.01,3.24,7.43,5.34.65,10.86.45,16.22.4,6.11-.06,12.23-.19,18.31-.75,1.7-.16,3.5-.15,4.88-1.33,1.08-.92,1.59-2.38,1.67-3.79.21-3.92-1.1-8.44-2.06-12.23-.38-1.48-1.09-5.06-2.61-7.21Z"/>
          <path class="cls-3" d="M326.1,366.19c-.77-2.54-4.75-5.98-6.11-7.15-8.71-7.46-11.31-10.81-21.24-13.8-2.32-.7-4.87.25-7.22.76-2.36.5-4.79,1.11-6.99,2.11-4.33,1.96-6.03,3.07-5.08,7,1.01,4.15,4.84,13.82,9.09,15.6,1.97.83,4.15,1.02,6.3,1.06,6.14.14,12.28.36,18.43.54,3.43.1,9.88.91,12.52-2.17,1.08-1.26.86-2.12.31-3.95Z"/>
        </g>
        <g>
          <path class="cls-4" d="M46.5,156.67c1.48-.17,2.97-.24,4.45-.19,1.42.05,2.89.14,4.25.6.99.33,2.02,1.02,2.32,2.07.25.89-.15,1.88-.92,2.38-1.1.71-.08,2.49,1.04,1.77,1.24-.8,2.04-2.19,2.01-3.68-.04-1.61-1.05-2.99-2.38-3.83-1.49-.94-3.31-1.15-5.03-1.29-1.91-.16-3.84-.11-5.74.11-.55.06-1.03.43-1.03,1.03,0,.5.47,1.09,1.03,1.03h0Z"/>
          <path class="cls-4" d="M40.56,165.84c2.97,0,5.95-.1,8.91-.43,2.77-.31,5.69-.76,8.17-2.1,1.16-.63.13-2.4-1.04-1.77-2.26,1.22-5,1.6-7.52,1.86-2.83.3-5.68.38-8.53.39-1.32,0-1.32,2.06,0,2.05h0Z"/>
          <path class="cls-4" d="M48.26,165.61c1.92-.22,3.85-.27,5.77-.11,1.53.13,3.04.48,4.34,1.35.98.66,1.56,1.55,1.51,2.75-.05,1.08-.64,2.05-1.6,2.54-1.17.6-.14,2.38,1.04,1.77,3-1.54,3.48-5.91,1.01-8.13-1.39-1.25-3.22-1.95-5.05-2.2-2.32-.32-4.69-.29-7.01-.02-.55.06-1.03.43-1.03,1.03,0,.5.47,1.09,1.03,1.03h0Z"/>
          <path class="cls-4" d="M43.05,175.23c2.81.22,5.63.35,8.45.22,2.66-.12,5.36-.45,7.81-1.54.51-.22.63-.96.37-1.4-.31-.52-.89-.59-1.4-.37-2.22.98-4.79,1.19-7.18,1.28-2.68.1-5.37-.03-8.04-.24-1.32-.1-1.31,1.95,0,2.05h0Z"/>
          <path class="cls-4" d="M48.59,183.07c2.52,0,5.03-.1,7.52-.48,1.15-.17,2.27-.44,3.39-.72.88-.22,1.8-.48,2.56-.99,1.81-1.2,2.13-3.9,1.16-5.73-.99-1.89-3.28-2.81-5.33-2.64-1.31.1-1.32,2.15,0,2.05,1.42-.11,3.1.4,3.66,1.85.28.73.21,1.72-.22,2.38-.32.48-.93.68-1.45.85-3.65,1.16-7.49,1.37-11.29,1.38-1.32,0-1.32,2.06,0,2.05h0Z"/>
          <path class="cls-4" d="M55.95,150.61c.22.26.62.91.72,1.21.08.24.15.47.2.72.02.13.02.14,0,.04,0,.07.01.14.01.21,0,.14,0,.28,0,.42-.01.13-.01.14,0,.04-.01.07-.03.14-.04.21-.03.14-.08.27-.12.41-.1.3.08-.14-.06.15-.06.13-.13.26-.2.38-.28.51-.63.97-.98,1.43-.33.43-.08,1.17.37,1.4.54.29,1.06.09,1.4-.37.85-1.12,1.63-2.31,1.69-3.77.07-1.47-.62-2.85-1.54-3.94-.35-.41-1.1-.38-1.45,0-.4.44-.37,1.01,0,1.45h0Z"/>
          <path class="cls-4" d="M72.23,172.41c-.04.22-.09.43-.16.64-.04.11-.08.23-.12.34-.07.17.08-.17.02-.05-.02.05-.04.09-.06.14-.09.2-.2.39-.32.58-.06.1-.13.2-.2.3-.02.03-.13.18-.03.04.1-.15-.03.03-.05.06-.14.17-.29.33-.45.48-.08.08-.16.15-.25.22-.06.05-.22.13.02-.01-.04.02-.08.06-.12.09-.18.13-.36.25-.56.35-.1.05-.19.1-.29.15-.09.04-.23.05.03,0-.06.01-.11.04-.17.07-.26.1-.47.23-.61.47-.13.22-.18.54-.1.79.16.49.72.92,1.26.72,2.07-.78,3.73-2.59,4.15-4.79.1-.53-.15-1.13-.72-1.26-.51-.12-1.15.15-1.26.72h0Z"/>
          <path class="cls-4" d="M87.83,204.34c-.28,3.06-1.49,6.07-3.42,8.46-.35.43-.42,1.03,0,1.45.36.36,1.1.43,1.45,0,2.3-2.85,3.69-6.26,4.02-9.91.05-.55-.51-1.03-1.03-1.03-.6,0-.98.47-1.03,1.03h0Z"/>
          <path class="cls-4" d="M137.11,247.05c2.27.67,4.52,1.38,6.76,2.13.51.17,1.14-.2,1.26-.72.13-.57-.17-1.08-.72-1.26-2.24-.75-4.5-1.46-6.76-2.13-.51-.15-1.14.18-1.26.72-.13.55.17,1.1.72,1.26h0Z"/>
          <path class="cls-4" d="M140.96,219.05c2.27.67,4.52,1.38,6.76,2.13.51.17,1.14-.2,1.26-.72.13-.57-.17-1.08-.72-1.26-2.24-.75-4.5-1.46-6.76-2.13-.51-.15-1.14.18-1.26.72-.13.55.17,1.1.72,1.26h0Z"/>
          <path class="cls-4" d="M148.97,292.54c1.38-.68,2.7-1.51,4.04-2.28,2.75-1.58,5.49-3.17,8.24-4.76,6.14-3.56,12.27-7.12,18.39-10.71,1.6-.94,3.22-1.84,4.8-2.83,1.12-.7.09-2.47-1.04-1.77-3.99,2.5-8.14,4.78-12.21,7.16-6.13,3.57-12.26,7.14-18.41,10.67-1.6.92-3.19,1.92-4.84,2.74-1.18.58-.15,2.35,1.04,1.77h0Z"/>
          <path class="cls-4" d="M237.8,272.39c1.37.82,2.89,1.45,4.33,2.16,3.16,1.55,6.33,3.09,9.49,4.64,7.08,3.45,14.18,6.89,21.25,10.36,1.75.86,3.61,1.62,5.29,2.63,1.14.68,2.17-1.09,1.04-1.77-1.37-.82-2.89-1.45-4.33-2.16-3.16-1.55-6.33-3.09-9.49-4.64-7.08-3.45-14.18-6.89-21.25-10.36-1.75-.86-3.61-1.62-5.29-2.63-1.14-.68-2.17,1.09-1.04,1.77h0Z"/>
          <path class="cls-4" d="M269.21,227c1.72,1.25,3.53,2.76,5.29,4.22,1.77,1.46,3.54,2.93,5.22,4.48.97.89,2.42-.55,1.45-1.45-1.72-1.59-3.53-3.08-5.33-4.58-1.83-1.52-3.67-3.05-5.59-4.45-.45-.33-1.14-.08-1.4.37-.3.52-.08,1.08.37,1.4h0Z"/>
          <path class="cls-4" d="M307.84,223c-2.09,1.83-4.17,3.68-6.26,5.51-.41.35-.39,1.09,0,1.45.43.4,1.02.38,1.45,0,2.1-1.83,4.17-3.68,6.26-5.51.41-.35.39-1.09,0-1.45-.43-.4-1.02-.38-1.45,0h0Z"/>
          <path class="cls-4" d="M353.57,197.75c-1.87-.17-3.76-.16-5.63.03-1.74.18-3.62.42-5.11,1.42-1.28.86-2.26,2.21-2.3,3.79-.03,1.52.8,2.94,2.08,3.72,1.13.69,2.16-1.09,1.04-1.77-.75-.46-1.21-1.37-1.04-2.26.22-1.11,1.26-1.87,2.27-2.24,1.3-.48,2.74-.62,4.11-.71,1.52-.1,3.05-.08,4.57.06,1.31.12,1.31-1.93,0-2.05h0Z"/>
          <path class="cls-4" d="M361.49,205.2c-3.38,1.04-6.9,1.61-10.44,1.46-2.52-.1-5.13-.56-7.39-1.71-1.17-.6-2.21,1.17-1.04,1.77,5.88,3.01,13.31,2.34,19.41.46,1.26-.39.72-2.37-.55-1.98h0Z"/>
          <path class="cls-4" d="M352.06,206.73c-2.33-.21-4.69-.16-7,.21-1.82.29-3.65,1.05-5,2.33-2.4,2.28-1.87,6.64,1.19,8.11.5.24,1.11.14,1.4-.37.26-.45.13-1.16-.37-1.4-.96-.46-1.56-1.36-1.69-2.41-.14-1.21.44-2.18,1.4-2.88,1.22-.88,2.7-1.3,4.18-1.47,1.96-.22,3.93-.23,5.89-.06.55.05,1.03-.51,1.03-1.03,0-.6-.47-.98-1.03-1.03h0Z"/>
          <path class="cls-4" d="M361.03,214.97c-2.12,1.06-4.79,1.4-7.18,1.58-2.76.21-5.6.2-8.35-.19-1.18-.17-2.37-.4-3.47-.86-.51-.21-1.13.23-1.26.72-.16.59.2,1.05.72,1.26,2.31.95,5,1.12,7.46,1.22,3.01.11,6.06-.05,9.02-.63,1.41-.28,2.81-.67,4.1-1.32,1.18-.59.14-2.36-1.04-1.77h0Z"/>
          <path class="cls-4" d="M352.2,224.2c-3.23.08-6.65.03-9.72-1.13-.48-.18-.85-.41-1.05-.89-.25-.62-.33-1.32-.16-1.96.34-1.3,1.59-1.98,2.87-1.9,1.32.08,1.31-1.97,0-2.05-1.84-.11-3.72.88-4.53,2.56-.79,1.64-.65,4.16.81,5.4.64.55,1.46.84,2.26,1.06.91.25,1.82.47,2.75.62,2.24.36,4.5.4,6.76.35,1.32-.03,1.32-2.08,0-2.05h0Z"/>
          <path class="cls-4" d="M342.52,192.56c-.9,1.13-1.58,2.54-1.45,4.03.14,1.53,1,2.71,1.94,3.88.34.42,1.1.38,1.45,0,.41-.45.36-1,0-1.45-.3-.37-.57-.71-.86-1.2-.07-.12-.14-.25-.21-.38-.03-.06-.06-.13-.09-.19.03.08.03.06-.02-.05-.04-.14-.09-.27-.12-.41-.02-.07-.03-.14-.04-.21,0,.08.01.08,0,0-.05-.58,0-.83.19-1.4.02-.05.04-.1.06-.15-.04.08-.03.06.02-.05.06-.13.13-.26.2-.38.07-.13.15-.25.23-.37.02-.03.24-.32.16-.23.33-.42.44-1.05,0-1.45-.37-.34-1.09-.45-1.45,0h0Z"/>
          <path class="cls-4" d="M328.71,209.34c-.15,1.11-.08,2.23.33,3.28.4,1.03,1.02,1.98,1.88,2.69.41.34,1.05.44,1.45,0,.35-.38.44-1.09,0-1.45-.17-.14-.32-.28-.47-.43-.08-.08-.15-.17-.23-.25,0,0-.1-.11-.1-.12.08.1.09.12.05.06-.02-.02-.03-.04-.04-.06-.12-.17-.24-.35-.34-.54-.06-.1-.11-.2-.16-.3-.02-.05-.04-.09-.06-.14-.06-.13.09.23,0,0-.07-.2-.14-.4-.2-.61-.05-.2-.05-.44-.13-.63.04.1.02.16,0,.01,0-.05,0-.1-.01-.15,0-.11-.01-.23-.01-.34,0-.1,0-.2,0-.3,0-.07.05-.46,0-.18.04-.29.05-.53-.1-.79-.12-.21-.37-.42-.61-.47-.48-.11-1.18.15-1.26.72h0Z"/>
          <path class="cls-4" d="M308.21,358.7c4.86,2.91,8.38,7.74,9.69,13.25.31,1.28,2.28.74,1.98-.55-1.43-6.01-5.34-11.3-10.64-14.47-1.14-.68-2.17,1.09-1.04,1.77h0Z"/>
          <path class="cls-4" d="M162.87,359.81c-4.22,3.09-8.54,6.79-9.06,12.35-.05.55.51,1.03,1.03,1.03.6,0,.97-.47,1.03-1.03.45-4.71,4.51-7.98,8.05-10.58.45-.33.67-.89.37-1.4-.26-.44-.95-.7-1.4-.37h0Z"/>
        </g>
        <g>
          <path class="cls-6" d="M272.43,100.64c1.93-4.5,3.85-9,5.78-13.5.22-.51.15-1.1-.37-1.4-.43-.25-1.18-.14-1.4.37-1.93,4.5-3.85,9-5.78,13.5-.22.51-.15,1.1.37,1.4.43.25,1.18.14,1.4-.37h0Z"/>
          <path class="cls-6" d="M291.28,104.83c4.14-2.36,8.27-4.72,12.41-7.08,1.15-.65.11-2.43-1.04-1.77-4.14,2.36-8.27,4.72-12.41,7.08-1.15.65-.11,2.43,1.04,1.77h0Z"/>
          <path class="cls-6" d="M93.04,260.03c-4.1,2.43-8.2,4.85-12.3,7.28-1.14.67-.1,2.45,1.04,1.77,4.1-2.43,8.2-4.85,12.3-7.28,1.14-.67.1-2.45-1.04-1.77h0Z"/>
          <path class="cls-6" d="M103.32,274.42c-2.28,4.03-4.31,8.19-6.59,12.22-.65,1.15,1.12,2.19,1.77,1.04,2.28-4.03,4.31-8.19,6.59-12.22.65-1.15-1.12-2.19-1.77-1.04h0Z"/>
        </g>
      </g>
    </g>
  </g>
</svg>