<?xml version="1.0" encoding="UTF-8"?>
<svg id="Layer_2" data-name="Layer 2" xmlns="http://www.w3.org/2000/svg" xmlns:xlink="http://www.w3.org/1999/xlink" viewBox="0 0 422.72 422.72">
  <defs>
    <style>
      .cls-1 {
        fill: none;
      }

      .cls-2 {
        fill: #252226;
      }

      .cls-3 {
        fill: #fff;
      }

      .cls-4 {
        fill: #2ac369;
      }

      .cls-5 {
        clip-path: url(#clippath);
      }

      .cls-6 {
        fill: #1b261f;
      }
    </style>
    <clipPath id="clippath">
      <circle class="cls-1" cx="211.36" cy="211.36" r="211.36"/>
    </clipPath>
  </defs>
  <g id="Layer_1-2" data-name="Layer 1">
    <g class="cls-5">
      <circle class="cls-6" cx="211.36" cy="211.36" r="211.36"/>
      <g>
        <g>
          <g>
            <g>
              <path class="cls-4" d="M171.52,317.5c-2.42,1.16-9.17,3.17-9.17,3.17l-33.44-63.14,24.59-12.77,25.27,48.55c4.31,8.29,2.91,19.32-7.24,24.19Z"/>
              <rect class="cls-4" x="141.48" y="299.02" width="27.69" height="43.95" transform="translate(104.92 674.01) rotate(-146.05)"/>
              <path class="cls-4" d="M128.18,339.22c-.93,3.67-1.13,7.55-.89,11.35.09,1.42.61,2.87,1.7,3.78,1.39,1.16,3.19,1.14,4.89,1.29,6.08.51,12.21.59,18.32.59,5.36,0,10.88.16,16.22-.54,3.4-.44,4.88-4.31,3.17-7.45-3.41-6.27-10.98-9.59-17.22-12.2-4.53-1.9-18.55-6.92-19.56-6.9-.19,0-.38-.02-.57,0-.17.02-2.36,1.9-2.47,2.07-1.71,2.47-2.86,5.18-3.57,8.01Z"/>
            </g>
            <g>
              <path class="cls-4" d="M233.98,317.5c-2.42,1.16-9.17,3.17-9.17,3.17l-33.44-63.14,24.59-12.77,25.27,48.55c4.31,8.29,2.91,19.32-7.24,24.19Z"/>
              <rect class="cls-4" x="203.93" y="299.02" width="27.69" height="43.95" transform="translate(219.18 708.89) rotate(-146.05)"/>
              <path class="cls-4" d="M190.63,339.11c-.95,3.67-1.12,7.54-.88,11.47.09,1.42.61,2.87,1.7,3.78,1.39,1.16,3.19,1.14,4.89,1.29,6.08.51,12.21.59,18.32.59,5.36,0,10.88.16,16.22-.54,3.4-.44,4.88-4.31,3.17-7.45-3.41-6.27-10.98-9.59-17.22-12.2-4.53-1.9-18.55-6.92-19.56-6.9-.19,0-.38-.02-.57,0-.17.02-2.36,1.9-2.47,2.07-1.73,2.49-2.87,5.14-3.58,7.89Z"/>
            </g>
          </g>
          <path class="cls-4" d="M270.89,301.61l-165.1-51.54c-1.32-.41-2.05-1.81-1.64-3.13l51.54-165.1c.41-1.32,1.81-2.05,3.13-1.64l165.1,51.54c1.32.41,2.05,1.81,1.64,3.13l-51.54,165.1c-.41,1.32-1.81,2.05-3.13,1.64Z"/>
          <g>
            <path class="cls-4" d="M91.4,224.59c3.03,3.21,8.36,4.51,8.36,4.51l57.25-43.5-17.09-21.79-45.45,34.82c-7.59,5.95-10.81,17.8-3.07,25.98Z"/>
            <rect class="cls-4" x="112.97" y="206.63" width="27.69" height="78.22" transform="translate(-127.14 136.32) rotate(-39.39)"/>
            <g>
              <path class="cls-4" d="M172.89,274.01c-1.6-3.22-4.51-5.32-7.59-7-1.66-.91-3.46-1.64-5.08-2.62-2.23-1.35-6.42-3.41-6.62,1.03-.22,4.68,4.86,8.54,7.98,11.24,1.23,1.06,2.28,2.46,2.44,4.12.2,2.18-1.46,3.51-1.78,5.51-.28,1.78,1.21,3.27,2.94,3.53,2.3.34,4.6-.85,6.15-2.48,3.35-3.52,3.67-9.1,1.57-13.34Z"/>
              <path class="cls-4" d="M167.77,277.15c-2.16-2.88-5.41-4.4-8.74-5.49-1.8-.59-3.7-.98-5.47-1.65-2.44-.92-6.93-2.18-6.32,2.22.64,4.64,6.34,7.5,9.9,9.59,1.4.82,2.69,2,3.15,3.61.6,2.11-.8,3.72-.74,5.74.05,1.81,1.79,3,3.54,2.93,2.33-.08,4.37-1.67,5.59-3.56,2.65-4.07,1.94-9.62-.9-13.4Z"/>
              <path class="cls-4" d="M160.4,281.42c-3.54-4.71-9.13-5.23-14.22-7.14-.66-.25-1.48-.52-2.3-.7-1.34-.67-3.04-.52-4.27.34-2.12,1.48-2.09,4.21-1.38,6.44.41,1.3,1.16,2.47,1.98,3.55.68.89,1.73,1.59,2.26,2.59.53,1-1.08,2.38-1.46,3.26-.69,1.59-.62,3.32.43,4.74,1.69,2.31,4.81,3.41,7.47,4.1,3.3.85,7.09.81,9.96-1.23.84-.6,1.57-1.34,2.16-2.19.28-.4.53-.82.75-1.25,2.06-3.94,1.22-9.03-1.39-12.51Z"/>
            </g>
          </g>
          <g>
            <path class="cls-4" d="M329.44,289.93c-5.57.43-10.72-4.5-10.72-4.5l-26.98-66.69,17.34-35.14,30.61,79.09c4.75,14.32,2.74,26.22-10.25,27.23Z"/>
            <polygon class="cls-4" points="285.31 244.46 306.75 226.96 340.03 267.85 318.6 285.35 285.31 244.46"/>
            <g>
              <path class="cls-2" d="M245.92,148.21c-20.95,0-37.95,17-37.95,37.95s17,37.95,37.95,37.95,37.95-17,37.95-37.95-17-37.95-37.95-37.95ZM245.92,218.52c-17.87,0-32.36-14.49-32.36-32.36s14.49-32.36,32.36-32.36,32.36,14.49,32.36,32.36-14.49,32.36-32.36,32.36Z"/>
              <path class="cls-2" d="M315.49,264.29h0c-1.69,1.61-4.36,1.56-5.98-.12l-45.07-46.92,6.11-5.85,45.07,46.91c1.62,1.69,1.56,4.37-.12,5.98Z"/>
            </g>
            <g>
              <path class="cls-4" d="M300.04,228.91c-4.38-.56-9.62,1.15-13.75,5.06-4.44,4.21-7.83,11.5-4.49,15.39,1.26,1.47,4.48,2.77,6.81,1.05.68-.5,1.2-1.16,1.67-1.82,2.08-2.91,4.23-5.57,7.13-7.83,2.52-1.96,6.07-4.06,7.03-7.48.77-2.77-1.49-3.79-3.38-4.2-.33-.07-.66-.13-1-.17Z"/>
              <path class="cls-4" d="M305.53,233.78c-4.38-.56-9.62,1.15-13.75,5.06-4.44,4.21-7.83,11.5-4.49,15.39,1.26,1.47,4.48,2.77,6.81,1.05.68-.5,1.2-1.16,1.67-1.82,2.08-2.91,4.23-5.57,7.13-7.83,2.52-1.96,6.07-4.06,7.03-7.48.77-2.77-1.49-3.79-3.38-4.2-.33-.07-.66-.13-1-.17Z"/>
              <path class="cls-4" d="M312.22,238.15c-4.1-.6-8.99,1.15-12.8,5.12-4.04,4.21-7.08,11.45-4.07,15.35,1.13,1.48,4.03,2.82,6.14,1.17.62-.48,1.09-1.13,1.52-1.77,1.92-2.87,3.91-5.51,6.6-7.74,2.36-1.96,5.46-3.85,6.41-7.36.78-2.86-1.08-4.15-2.86-4.58-.31-.07-.62-.14-.94-.18Z"/>
              <path class="cls-4" d="M314.96,238.32c-.98-1.59-2.19-3.09-3.54-4.46-4.79-4.85-10.47-5.64-16.72-4.57-3.7.64-5.84,5.7-3.99,8.55,1.22,1.88,3.07,3.35,4.91,4.59,3.28,2.22,6.77,4.41,9.88,6.96,1.48,1.22,2.32,2.53,3.92,3.61,1.49,1,3.08,2.01,4.7,3.66.79.81,1-.82,1.52-1.69,3.15-5.3,2.48-11.54-.68-16.66Z"/>
            </g>
          </g>
        </g>
        <g>
          <path class="cls-2" d="M135.52,165.58c-2.7,2.3-5.4,4.61-8.2,6.78-.44.34-.36,1.09,0,1.45.43.43,1.01.34,1.45,0,2.8-2.18,5.5-4.49,8.2-6.78.42-.36.37-1.08,0-1.45-.42-.42-1.03-.36-1.45,0h0Z"/>
          <path class="cls-2" d="M137.35,199.54c-6.09,4.67-12.21,9.3-18.28,13.98-.44.34-.67.88-.37,1.4.25.43.96.71,1.4.37,6.08-4.68,12.19-9.32,18.28-13.98.44-.34.67-.88.37-1.4-.25-.43-.96-.71-1.4-.37h0Z"/>
          <path class="cls-2" d="M118.92,213.55c-3.19,1.55-6.71,2.3-10.25,2.22-1.32-.03-1.32,2.02,0,2.05,3.91.08,7.77-.79,11.29-2.5.5-.24.63-.95.37-1.4-.3-.51-.9-.61-1.4-.37h0Z"/>
          <path class="cls-2" d="M118.74,215.14c1.43,1.82,2.92,3.59,4.38,5.39,3.19,3.92,6.39,7.83,9.59,11.75,3.82,4.68,7.64,9.36,11.46,14.04,3.33,4.08,6.66,8.16,9.99,12.25,1.73,2.12,3.4,4.31,5.2,6.38.05.06.1.12.14.18.34.44,1.09.36,1.45,0,.43-.43.34-1.01,0-1.45-1.43-1.82-2.92-3.59-4.38-5.39-3.19-3.92-6.39-7.83-9.59-11.75-3.82-4.68-7.64-9.36-11.46-14.04-3.33-4.08-6.66-8.16-9.99-12.25-1.73-2.12-3.4-4.31-5.2-6.38-.05-.06-.1-.12-.14-.18-.34-.44-1.09-.36-1.45,0-.43.43-.34,1.01,0,1.45h0Z"/>
          <path class="cls-2" d="M105.74,243.01c.86,1.21,1.89,2.31,2.85,3.43,1.31,1.53,2.64,3.06,3.94,4.6.25.3.51.6.76.91.09.12.19.23.28.35.13.16-.12-.11-.05-.06.03.02.06.09.08.11.32.45.9.66,1.4.37.45-.26.69-.95.37-1.4-.86-1.21-1.89-2.31-2.85-3.43-1.31-1.53-2.64-3.06-3.94-4.6-.25-.3-.51-.6-.76-.91-.1-.12-.19-.23-.28-.35-.13-.16.12.11.05.06-.03-.02-.06-.09-.08-.11-.32-.45-.9-.67-1.4-.37-.45.26-.69.95-.37,1.4h0Z"/>
          <path class="cls-2" d="M160.14,265.64c.93.17,1.8.57,2.66.93.74.31,1.47.64,2.19,1.01,1.45.75,2.77,1.66,3.78,2.96.34.44,1.09.36,1.45,0,.43-.43.34-1.01,0-1.45-1.1-1.42-2.61-2.47-4.2-3.28-.81-.42-1.64-.78-2.48-1.13-.93-.39-1.87-.83-2.86-1.01-.54-.1-1.11.15-1.26.72-.14.5.17,1.16.72,1.26h0Z"/>
          <path class="cls-2" d="M159.89,272.88c5.35,2.86,8.72,8.75,8.48,14.8-.05,1.32,2,1.32,2.05,0,.26-6.74-3.55-13.39-9.5-16.57-1.16-.62-2.2,1.15-1.04,1.77h0Z"/>
          <path class="cls-2" d="M151.94,278.32c5.35,2.86,8.72,8.75,8.48,14.8-.05,1.32,2,1.32,2.05,0,.26-6.74-3.55-13.39-9.5-16.57-1.16-.62-2.2,1.15-1.04,1.77h0Z"/>
          <path class="cls-2" d="M142.69,288.02c2.31,2.88,5.57,4.97,9.13,5.93,1.28.34,1.82-1.64.55-1.98-3.26-.88-6.12-2.78-8.23-5.4-.35-.43-1.09-.36-1.45,0-.43.43-.35,1.02,0,1.45h0Z"/>
          <path class="cls-2" d="M306.18,239.37c-3.82.25-7.04,2.58-9.47,5.4-2.39,2.78-4.29,6.26-3.72,10.03.08.55.77.85,1.26.72.59-.16.8-.71.72-1.26-.46-3.02,1.42-6.02,3.32-8.19,2.03-2.31,4.69-4.43,7.89-4.64,1.31-.09,1.32-2.14,0-2.05h0Z"/>
          <path class="cls-2" d="M297.24,233.2c-7.41,2.77-12.5,9.67-12.89,17.59-.07,1.32,1.99,1.32,2.05,0,.34-6.94,4.86-13.17,11.38-15.61,1.23-.46.7-2.44-.55-1.98h0Z"/>
          <path class="cls-2" d="M309.27,252.38c.86-.35,1.63-.8,2.35-1.38.66-.53,1.22-1.17,1.7-1.86.3-.44.1-1.16-.37-1.4-.52-.28-1.08-.11-1.4.37-.05.08-.11.15-.16.23-.02.03-.05.06-.07.09.17-.24.08-.11.04-.06-.11.14-.22.27-.34.4-.24.26-.51.51-.78.74-.03.02-.06.05-.09.07-.1.08.19-.15.05-.04-.07.05-.15.11-.22.16-.14.1-.29.2-.44.29-.31.19-.63.35-.96.49.08-.03.16-.07.25-.1-.03.01-.07.03-.1.04-.26.1-.47.22-.61.47-.13.22-.18.54-.1.79.08.25.23.49.47.61.23.12.54.21.79.1h0Z"/>
          <path class="cls-2" d="M288.18,254.35c-.89-.91-1.47-1.98-1.76-3.21-.11-.44-.55-.75-.99-.75-2.14,0-3.84-1.65-4.42-3.63-.56-1.93-.19-3.94.52-5.78,1.2-3.14,3.62-5.82,6.34-7.75,2.86-2.03,6.26-3.48,9.77-3.83,1.67-.17,3.37-.11,5.01.29,1.83.44,3.44,1.31,4.97,2.4,3.51,2.5,6.11,6.19,8.84,9.48,3.65,4.39,7.3,8.78,10.95,13.17,2.56,3.08,5.14,6.15,7.68,9.25.08.1.16.2.24.29.35.43,1.09.36,1.45,0,.43-.43.35-1.02,0-1.45-2.31-2.88-4.71-5.69-7.07-8.52-3.83-4.6-7.65-9.2-11.48-13.81-2.92-3.52-5.67-7.35-9.4-10.05-3.24-2.34-6.96-3.46-10.96-3.11-3.8.33-7.49,1.72-10.64,3.86-3.06,2.08-5.78,4.9-7.29,8.31-.83,1.87-1.4,3.93-1.23,5.99.2,2.45,1.36,4.77,3.51,6.06.97.58,2.08.89,3.21.89-.33-.25-.66-.5-.99-.75.38,1.56,1.17,2.97,2.29,4.12.92.95,2.37-.51,1.45-1.45h0Z"/>
          <path class="cls-2" d="M299.18,261.02c3.23-.08,6.18-2.05,7.72-4.86.27-.49.12-1.12-.37-1.4-.47-.27-1.14-.12-1.4.37-.16.3-.34.58-.53.86-.05.07-.1.14-.15.2-.06.08.05-.06-.06.07-.11.13-.22.26-.33.38-.23.25-.47.48-.73.7-.06.05-.13.11-.19.16-.14.12.19-.13-.07.06-.14.1-.27.2-.41.29-.28.18-.57.35-.88.5-.06.03-.12.06-.18.09-.29.14.17-.06-.12.05-.14.05-.28.11-.43.15-.32.11-.64.19-.97.25-.08.02-.17.03-.25.04.15-.02-.01,0-.08,0-.19.02-.37.03-.56.03-.54.01-1.05.46-1.03,1.03.02.54.45,1.04,1.03,1.03h0Z"/>
          <path class="cls-2" d="M308.04,185.78c-1.64,4.89-3.2,9.81-4.79,14.73-2.12,6.58-4.24,13.17-6.37,19.75-.8,2.49-1.61,4.98-2.42,7.47-.41,1.26,1.57,1.8,1.98.55,1.72-5.26,3.4-10.52,5.1-15.78,2.09-6.49,4.18-12.97,6.28-19.45.73-2.24,1.45-4.48,2.2-6.71.42-1.25-1.56-1.79-1.98-.55h0Z"/>
          <path class="cls-2" d="M172.01,284.09c-.06,1.14-.76,2.17-1.73,2.75-.55.33-1.23.4-1.65.92-.36.43-.5,1.02-.64,1.55-.31,1.13-1.1,2.2-2.26,2.78-1.26.63-2.75.53-4.11.5-.56-.01-1.02.48-1.03,1.03,0,.82-.6,1.68-1.17,2.23-.65.62-1.46,1.06-2.3,1.36-1.74.62-3.63.8-5.43.41-1.29-.28-1.84,1.7-.55,1.98,2.37.52,4.88.29,7.12-.64,2.13-.88,4.37-2.83,4.38-5.33-.34.34-.68.68-1.03,1.03,1.66.03,3.33.05,4.87-.65,1.48-.66,2.78-2.03,3.31-3.57.1-.29.16-.58.25-.87.04-.14.12-.3.14-.44.03-.25.22-.02-.09.05.73-.18,1.44-.64,2.01-1.11,1.18-.99,1.88-2.42,1.96-3.95.07-1.32-1.98-1.31-2.05,0h0Z"/>
          <path class="cls-2" d="M204.2,281.3c1.24.46,2.53.82,3.8,1.22,2.78.88,5.56,1.76,8.33,2.64,6.28,1.99,12.56,3.97,18.83,6,1.09.35,2.19.71,3.28,1.08.32.11.65.22.97.33.09.03.19.07.28.1.24.08-.26-.13-.08-.03,1.16.64,2.19-1.13,1.04-1.77-.4-.22-.88-.34-1.31-.49-.87-.3-1.75-.58-2.62-.87-2.8-.91-5.6-1.81-8.4-2.7-6.31-2.01-12.62-4.01-18.93-6.01-1.54-.49-3.12-.92-4.64-1.49-1.24-.46-1.77,1.52-.55,1.98h0Z"/>
          <path class="cls-2" d="M162.68,348.46c.43.5.69.83,1.07,1.38.39.56.74,1.13,1.06,1.73.15.28.29.57.43.86.13.29.2.46.32.79.11.3.2.61.28.92.04.16.07.32.1.48.01.07.02.14.04.21.03.19-.03-.24,0,.09.06.55.43,1.03,1.03,1.03.51,0,1.08-.47,1.03-1.03-.3-2.96-2-5.69-3.9-7.9-.36-.42-1.08-.37-1.45,0-.42.42-.36,1.03,0,1.45h0Z"/>
          <path class="cls-2" d="M225.13,348.46c.43.5.69.83,1.07,1.38.39.56.74,1.13,1.06,1.73.15.28.29.57.43.86.13.29.2.46.32.79.11.3.2.61.28.92.04.16.07.32.1.48.01.07.02.14.03.21.03.19-.03-.24,0,.09.06.55.43,1.03,1.03,1.03.51,0,1.08-.47,1.03-1.03-.3-2.96-2-5.69-3.9-7.9-.36-.42-1.08-.37-1.45,0-.42.42-.36,1.03,0,1.45h0Z"/>
        </g>
        <g>
          <g>
            <path class="cls-3" d="M183.21,166.7c-2.3,7.35.25,14.69,5.68,16.38,3.71,1.16,7.79-.6,10.75-4.17,1.39-1.66,2.52-3.73,3.25-6.07,1.39-4.46,1-8.9-.73-12.09-1.13-2.08-2.82-3.63-4.96-4.3-5.43-1.7-11.7,2.89-14,10.24Z"/>
            <path class="cls-2" d="M189.67,167.77c-1.81,5.79-.07,11.47,3.88,12.71,2.01.63,4.2-.01,6.1-1.56,1.39-1.66,2.52-3.73,3.25-6.07,1.39-4.46,1-8.9-.73-12.09-.6-.56-1.3-.99-2.08-1.23-3.94-1.23-8.61,2.46-10.42,8.24Z"/>
          </g>
          <g>
            <path class="cls-3" d="M226.03,180.01c-3.54,11.35,2.61,23.37,13.73,26.84,7.59,2.37,15.52.16,20.94-5.08,2.54-2.45,4.51-5.56,5.64-9.18,2.15-6.88.73-13.99-3.2-19.31-2.55-3.47-6.17-6.17-10.55-7.54-11.12-3.47-23.02,2.91-26.56,14.26Z"/>
            <path class="cls-2" d="M239.12,182.64c-2.79,8.94,1.51,18.22,9.59,20.74,4.11,1.28,8.41.59,11.99-1.6,2.54-2.45,4.51-5.56,5.64-9.18,2.15-6.88.73-13.99-3.2-19.31-1.28-.98-2.74-1.75-4.34-2.25-8.08-2.52-16.9,2.67-19.69,11.6Z"/>
          </g>
          <path class="cls-2" d="M190.31,138.68c2.39-2.42,5.84-3.33,9.17-3.16,2.73.14,6.07,1.07,7.79,3.29.34.44.88.67,1.4.37.43-.25.71-.96.37-1.4-3.48-4.51-10.76-5.32-15.8-3.36-1.64.64-3.13,1.56-4.37,2.82-.93.94.52,2.39,1.45,1.45h0Z"/>
          <path class="cls-2" d="M189.86,197.88c-1.19,6.34,1.87,13.93,8.02,16.57.51.22,1.1.15,1.4-.37.25-.43.14-1.18-.37-1.4-5.27-2.26-8.11-8.74-7.08-14.25.24-1.29-1.74-1.84-1.98-.55h0Z"/>
        </g>
      </g>
    </g>
  </g>
</svg>