<?xml version="1.0" encoding="UTF-8"?>
<svg id="Layer_2" data-name="Layer 2" xmlns="http://www.w3.org/2000/svg" xmlns:xlink="http://www.w3.org/1999/xlink" viewBox="0 0 422.72 422.72">
  <defs>
    <style>
      .cls-1 {
        fill: none;
      }

      .cls-2 {
        fill: #252226;
      }

      .cls-3 {
        fill: #2b2419;
      }

      .cls-4 {
        fill: #f0ad05;
      }

      .cls-5 {
        fill: #fff;
      }

      .cls-6 {
        clip-path: url(#clippath);
      }
    </style>
    <clipPath id="clippath">
      <circle class="cls-1" cx="211.36" cy="211.36" r="211.36"/>
    </clipPath>
  </defs>
  <g id="Layer_1-2" data-name="Layer 1">
    <g class="cls-6">
      <circle class="cls-3" cx="211.36" cy="211.36" r="211.36"/>
      <g>
        <circle class="cls-4" cx="221.36" cy="169.25" r="104.1"/>
        <g>
          <rect class="cls-4" x="229.96" y="250.32" width="27.69" height="104.84" transform="translate(487.61 605.47) rotate(180)"/>
          <path class="cls-4" d="M230.3,363.05c.81,4.15,4.48,4.29,8.4,4.37,3.23.06,6.47.18,9.7.17,5.22-.02,10.44-.2,15.66-.38,1.61-.06,3.23-.12,4.84-.17,1.44-.05,2.89-.1,4.27-.61,4.68-1.74,4.53-7.83.81-10.82-2.16-1.73-4.94-2.41-7.4-3.31-2.53-.92-5.96-2.47-7.21-5.36-1.06-2.45-2.05-4.1-2.05-8.21,0-2.15-5.38.33-7.47.21-4.41-.25-8.83.16-13.2.89-1.97.33-5.27-.29-6.04,2-1.03,3.08-.68,8.1-.66,10.78.03,3.11,0,6.28.22,9.38.03.38.07.73.14,1.06Z"/>
        </g>
        <g>
          <path class="cls-4" d="M206.96,342.86c-1.2-2.1-4.03-2.68-6-3-4.37-.73-8.79-1.14-13.2-.89-2.09.12-7.47-2.36-7.47-.21,0,4.1-.99,5.75-2.05,8.21-1.25,2.89-4.67,4.44-7.21,5.36-2.46.9-5.24,1.58-7.4,3.31-3.73,2.99-3.88,9.08.81,10.82,1.37.51,2.83.56,4.27.61,5.23.18,10.46.35,15.69.43,3.6.06,7.19.05,10.79.03,2.85-.02,5.85.26,8.69-.02,1.89-.19,3.26-1.35,3.42-3.29.16-1.98.16-4.01.24-5.99.12-3.03.18-6.07.12-9.11-.04-1.8.26-4.61-.68-6.25Z"/>
          <rect class="cls-4" x="179.95" y="250.34" width="27.69" height="104.84"/>
        </g>
        <g>
          <path class="cls-4" d="M106.08,255.07c-2-1.8-6.26-7.48-6.26-7.48l55.88-67.94,21.29,17.72-43.11,51.79c-7.36,8.84-19.42,13.44-27.79,5.91Z"/>
          <rect class="cls-4" x="81.35" y="190.97" width="27.69" height="53.68" transform="translate(-110.24 98.23) rotate(-36.19)"/>
          <g>
            <path class="cls-4" d="M91.07,170.6c-2.13-1.61-4.87-.33-6.48,1.4-4.08,4.39-2.93,10.87-3.99,16.27-.54,2.74-1.21,5.71.54,8.17,1.47,2.07,3.85,3.76,6.15,4.78,2.5,1.1,5.4,1.59,8.05.74.93-.3,1.9-.86,2.42-1.72.49-.81,1.01.37.72-.49-.46-1.37-2.02-4.69-2.65-5.97-.67-1.35-1.15-2.78-1.49-4.24-.94-4.01-.9-8.16-1.08-12.25-.1-2.28-.16-5.17-2.17-6.68Z"/>
            <path class="cls-4" d="M86,198.64c-.46-3.44-2.75-6.51-5.85-8.04-3.64-1.79-8.19-1.98-12.18-1.81-1.06.05-2.12.14-3.18.27-1.09.14-2.3.56-3.23-.18-1.61-1.28-2.95-3.22-4.22-4.83-1.99-2.51-4.16-5.71-7.82-5.31-1.46.16-2.75.98-3.34,2.35-.67,1.55-.26,3.31.31,4.82,1.51,3.96,3.37,7.88,5.3,11.65,1.03,2,2.07,4.1,3.45,5.89,1.28,1.66,2.91,2.47,4.88,3.06,4.54,1.37,9.27,2.46,14.04,2.12.89.12,1.8.14,2.65.16,1.79.05,3.67-.13,5.25-1.04,3.07-1.77,4.4-5.74,3.95-9.12Z"/>
            <path class="cls-4" d="M62.03,181.18c-.98-2.29-1.14-4.84-2-7.17-.75-2.03-2.38-4.49-4.82-4.43-3.08.08-4.33,3.21-4.71,5.79-.42,2.77-.42,5.6-.09,8.38-.14.14-.23.33-.21.59.15,2.77,1.42,5.15,3.24,7.2,1.74,1.97,3.91,3.92,6.27,5.11,2.38,1.2,5.08,1.29,7.6.47,2.22-.72,4.3-2.08,4.36-4.64.15-5.93-7.61-6.62-9.63-11.32Z"/>
            <path class="cls-4" d="M72.23,175.95c-.98-2.29-1.14-4.84-2-7.17-.75-2.03-2.38-4.49-4.82-4.43-3.08.08-4.33,3.21-4.71,5.79-.42,2.77-.42,5.6-.09,8.38-.14.14-.23.33-.21.59.15,2.77,1.42,5.15,3.24,7.2,1.74,1.97,3.91,3.93,6.27,5.11,2.38,1.2,5.08,1.29,7.6.47,2.22-.72,4.3-2.08,4.36-4.64.15-5.93-7.61-6.62-9.63-11.32Z"/>
            <path class="cls-4" d="M92.18,194.7c.05-1.94-.31-4.09-.94-5.54-1.03-2.37-3.06-4.16-5.38-5.24-2.64-1.22-5.57-1.56-8.45-1.64-2.98-.08-6.15.02-8.95,1.14-2.34.94-4.51,2.91-4.52,5.61-.05,8.29,11.23,11.64,17.8,11.63,4.4,0,10.29-.35,10.44-5.97Z"/>
          </g>
        </g>
        <g>
          <path class="cls-4" d="M324.44,266.26c-2.6.67-9.7,1.08-9.7,1.08l-25.65-84.14,26.54-7.92,19.27,64.57c3.29,11.02.44,23.62-10.46,26.42Z"/>
          <path class="cls-4" d="M331.98,262.04c1.41-2.28,3.91-8.94,3.91-8.94l-72.74-49.47-15.44,22.99,55.94,37.57c9.55,6.41,22.42,7.43,28.33-2.15Z"/>
          <g>
            <path class="cls-4" d="M279.81,215.69c-1.07-3.88-4.04-6.6-7.04-9.08-3.26-2.7-5.78-6.11-9.2-8.65-5-3.71-11.41-5.5-17.67-5.2-5.08.25-14.28,1.62-15.69,7.64-1.19,5.1,4.76,7.03,8.71,6.72,4.16-.33,8.05-1,11.73,1.49,3.13,2.12,5.35,5.29,7.95,7.96,3.29,3.37,7.25,5.4,11.96,5.86,4.09.4,8.73-1.39,9.25-5.96.01-.1,0-.18-.02-.26.05-.15.07-.32.02-.52Z"/>
            <path class="cls-4" d="M267.99,210.55c-6.36-7.87-21.97-7.33-27.1,2.1-7.13,13.12,6.05,25.72,17.5,23.11,2.64-.6,4.96-3.03,3.57-5.78-1.04-2.04-2.63-3.94-4.27-5.53,2.9-.59,5.69-1.7,8.17-3.33,1.72-1.13,3.43-2.62,3.85-4.74.42-2.12-.34-4.11-1.72-5.83Z"/>
            <path class="cls-4" d="M266.05,218.23c-5.8-7.18-20.04-6.68-24.71,1.91-6.5,11.96,5.51,23.45,15.95,21.07,2.41-.55,4.52-2.77,3.26-5.27-.94-1.86-2.4-3.59-3.89-5.04,2.64-.54,5.19-1.55,7.45-3.04,1.57-1.03,3.13-2.39,3.51-4.32.38-1.93-.31-3.75-1.57-5.32Z"/>
          </g>
        </g>
        <g>
          <path class="cls-4" d="M90.47,156.13c-1.22-2.73-2.37-5.59-3.74-8.23-6.21.01-16.93.08-25.76.1-.71,1.3-1.39,2.63-2.04,3.97-.63,1.27-2.08,3.34-1.63,4.93.92,3.26,6.34,2.46,8.38,2.42,7.97-.17,15.95-.87,23.92-1.33.78-.05,1.26-1.02.88-1.87Z"/>
          <path class="cls-4" d="M83.31,113.09c-.12.31-.29.62-.44.91-.45.85-.9,1.7-1.36,2.55-1.94,3.54-3.98,7.01-6.11,10.39-.42.67-.83,1.53-1.56,1.79-.76.29-1.53-.09-2.06-.7-1.18-1.32-1.87-3.32-2.58-4.97-1.45-3.28-2.88-6.57-4.33-9.87,7.14-.01,12.86-.1,18.45-.11Z"/>
          <g>
            <path class="cls-5" d="M88.77,159.83h-29.87c-1.07,0-2.02-.55-2.55-1.47-.53-.92-.53-2.03,0-2.95l14.94-25.87c.53-.92,1.49-1.47,2.55-1.47,1.07,0,2.02.55,2.55,1.47l14.94,25.87c.53.92.53,2.03,0,2.95-.53.92-1.49,1.47-2.55,1.47ZM73.83,130.12c-.16,0-.54.04-.78.45l-14.94,25.87c-.23.41-.08.76,0,.9.08.14.31.45.78.45h29.87c.47,0,.7-.31.78-.45.08-.14.23-.49,0-.9l-14.93-25.87c-.23-.4-.62-.45-.78-.45Z"/>
            <path class="cls-5" d="M73.76,129.8h0c-1.07,0-2.02-.55-2.55-1.47l-14.94-25.87c-.53-.92-.53-2.03,0-2.95.53-.92,1.49-1.47,2.55-1.47h29.87c1.07,0,2.02.55,2.55,1.47.53.92.53,2.02,0,2.95l-14.93,25.87c-.53.92-1.49,1.47-2.55,1.47ZM58.82,100.09c-.47,0-.7.31-.78.45-.08.14-.23.49,0,.9l14.94,25.87c.23.4.62.45.78.45h0c.16,0,.54-.04.78-.45l14.93-25.87c.23-.4.08-.76,0-.9-.08-.13-.31-.45-.78-.45h-29.87Z"/>
          </g>
        </g>
        <g>
          <path class="cls-2" d="M72.13,209.98c2.2,1,4.57,1.32,6.96.94.53-.09.87-.77.72-1.26-.19-.58-.69-.81-1.26-.72-.07.01-.14.02-.22.03.09-.01.08-.01-.05,0-.11.01-.22.02-.32.03-.25.02-.51.03-.76.03-.25,0-.51,0-.76-.02-.19-.01-.53-.04-.62-.06-.09-.01-.43-.07-.61-.11-.25-.05-.5-.11-.74-.18-.24-.07-.49-.15-.72-.23-.27-.1-.36-.14-.56-.23-.49-.22-1.13-.16-1.4.37-.24.45-.15,1.17.37,1.4h0Z"/>
          <path class="cls-2" d="M117.75,227.16c2.26,2.64,4.51,5.28,6.77,7.91.36.42,1.08.37,1.45,0,.42-.42.36-1.03,0-1.45-2.26-2.64-4.51-5.28-6.77-7.91-.36-.42-1.08-.37-1.45,0-.42.42-.36,1.03,0,1.45h0Z"/>
          <path class="cls-2" d="M126.92,215.55c3.07,6.31,6.74,12.22,11.09,17.73,1.37,1.74,2.79,3.43,4.23,5.11.86,1,2.31-.45,1.45-1.45-4.56-5.29-8.76-10.84-12.16-16.95-1-1.8-1.94-3.63-2.84-5.47-.58-1.19-2.35-.15-1.77,1.04h0Z"/>
          <path class="cls-2" d="M50.55,180.52c3.05,1.06,5.15,3.89,6.24,6.83.59,1.6.74,3.59,2.13,4.75,1.38,1.16,3.18,1.16,4.88,1.39,2.3.31,4.54,1.02,6.61,2.05,1.18.59,2.22-1.18,1.04-1.77-1.85-.92-3.81-1.63-5.84-2.04-.99-.2-1.98-.31-2.98-.42-.75-.08-1.62-.2-2.24-.66-.64-.47-.84-1.29-1.04-2.02-.23-.83-.48-1.65-.81-2.45-.66-1.6-1.53-3.09-2.67-4.4-1.29-1.47-2.91-2.59-4.76-3.23-1.25-.44-1.79,1.55-.55,1.98h0Z"/>
          <path class="cls-2" d="M60.03,176.25c.6,1.2,1.2,2.41,1.81,3.61.57,1.13,1.07,2.33,1.74,3.41.61.99,1.47,1.6,2.56,1.98.91.31,1.92.41,2.77.87,1.16.62,2.2-1.15,1.04-1.77-.89-.47-1.85-.66-2.81-.93-.89-.25-1.49-.62-1.94-1.44-1.22-2.2-2.27-4.51-3.39-6.76-.25-.5-.95-.63-1.4-.37-.5.3-.62.91-.37,1.4h0Z"/>
          <path class="cls-2" d="M80.65,183.69c-.03,4.1,1.16,8.17,3.4,11.6.72,1.1,2.5.07,1.77-1.04-2.06-3.14-3.15-6.8-3.12-10.56,0-1.32-2.04-1.32-2.05,0h0Z"/>
          <path class="cls-2" d="M180.26,266.45c8.29,3.59,17.01,6.06,25.96,7.3.55.08,1.1-.13,1.26-.72.13-.48-.16-1.19-.72-1.26-8.76-1.21-17.35-3.58-25.47-7.09-.51-.22-1.1-.15-1.4.37-.25.43-.14,1.18.37,1.4h0Z"/>
          <path class="cls-2" d="M231.23,274c8.92-.35,17.75-2.24,26.02-5.63.51-.21.88-.68.72-1.26-.13-.48-.75-.93-1.26-.72-8.1,3.32-16.73,5.21-25.47,5.55-1.32.05-1.32,2.1,0,2.05h0Z"/>
          <path class="cls-2" d="M296.75,211.19c.9,2.36,1.64,4.8,2.39,7.21.93,2.97,1.83,5.95,2.71,8.94.36,1.2.71,2.4,1.05,3.6.36,1.27,2.34.73,1.98-.55-1.56-5.43-3.18-10.84-4.93-16.21-.39-1.19-.78-2.38-1.22-3.55-.2-.52-.69-.87-1.26-.72-.5.14-.91.74-.72,1.26h0Z"/>
          <path class="cls-2" d="M315.58,180.07c1.61,5.21,2.94,10.5,4.44,15.75.36,1.27,2.34.73,1.98-.55-1.5-5.25-2.83-10.54-4.44-15.75-.39-1.26-2.37-.72-1.98.55h0Z"/>
          <path class="cls-2" d="M250.49,205.2c-3.45-2.08-7.54-1.7-11.34-1.03-2.12.37-5.6,1.15-6.6-1.46-.63-1.64-.14-3.64.93-4.99,1.16-1.48,2.9-2.43,4.64-3.06,3.91-1.41,8.24-1.76,12.34-1.11,4.06.64,7.82,2.19,11.14,4.62,3.21,2.35,5.98,5.26,8.71,8.14,1.35,1.42,2.66,2.84,3.89,4.37,1.23,1.53,2.44,3.09,3.9,4.4,1.66,1.49,3.64,2.64,5.49,3.88,1.99,1.34,3.98,2.67,5.98,4,7.92,5.29,15.82,10.6,23.78,15.82.99.65,1.97,1.29,2.96,1.94,1.11.72,2.14-1.05,1.04-1.77-8.33-5.42-16.58-10.98-24.86-16.5-2.07-1.38-4.13-2.76-6.19-4.14-2.01-1.35-4.1-2.61-6.02-4.08-1.61-1.23-2.9-2.86-4.16-4.43-1.28-1.59-2.6-3.1-4-4.57-2.88-3.04-5.79-6.06-9.15-8.58-3.41-2.55-7.32-4.27-11.52-5-4.38-.77-8.95-.55-13.19.81-3.86,1.24-7.58,3.78-7.99,8.14-.16,1.72.37,3.66,1.73,4.8,1.17.98,2.69,1.25,4.18,1.2,3.47-.11,6.82-1.42,10.33-.75,1.06.2,2.03.57,2.95,1.12,1.13.68,2.17-1.09,1.04-1.77h0Z"/>
          <path class="cls-2" d="M255.99,204.39c-4,.07-8.02,1.27-11.22,3.71-2.98,2.27-5.21,5.55-6.02,9.22-.49,2.25-.55,4.67.5,6.77.59,1.18,2.36.14,1.77-1.04-.97-1.95-.59-4.44.05-6.44.62-1.93,1.69-3.72,3.07-5.2,3.04-3.27,7.45-4.91,11.86-4.98,1.32-.02,1.32-2.07,0-2.05h0Z"/>
          <path class="cls-2" d="M251.63,215.84c-4.18.93-8.39,3.34-10.91,6.87-2.38,3.34-2.4,7.81-.28,11.29,2.11,3.46,5.8,5.5,9.54,6.77,1.84.62,3.84.94,5.73.32,1.61-.52,3.09-1.58,3.71-3.2.78-2.02-.32-4.23-1.64-5.74-1.45-1.66-3.5-2.66-5.57-3.3-1.26-.39-1.8,1.59-.55,1.98,1.48.46,2.95,1.12,4.1,2.19.96.89,2.06,2.37,1.85,3.77-.18,1.17-1.32,1.95-2.37,2.3-1.51.51-3.02.25-4.5-.23-3.08-1-6.27-2.62-8.16-5.34-1.89-2.72-2.24-6.26-.49-9.14,2.1-3.45,6.25-5.7,10.09-6.55,1.29-.29.74-2.26-.55-1.98h0Z"/>
          <path class="cls-2" d="M255.81,226.83c.04.35.05.69.02,1.04,0,.04,0,.08-.01.13-.01.14.04-.22.01-.08-.02.08-.03.17-.05.25-.04.18-.08.35-.14.52-.03.08-.06.16-.09.24-.05.13.01-.03.03-.07-.02.04-.03.08-.05.12-.07.15-.15.3-.24.45-.04.07-.09.14-.13.21-.03.04-.06.09-.09.13-.02.03-.11.15-.01.02.1-.12,0,0-.02.02-.03.03-.05.06-.08.1-.06.07-.13.14-.19.21-.37.39-.41,1.07,0,1.45.4.37,1.05.41,1.45,0,1.19-1.23,1.85-3.01,1.65-4.73-.03-.28-.09-.52-.3-.73-.18-.18-.47-.31-.73-.3-.5.02-1.09.46-1.03,1.03h0Z"/>
          <path class="cls-2" d="M257.84,235.37c2.88,2.07,5.91,3.95,8.87,5.91,4.29,2.83,8.59,5.66,12.87,8.5,1.23.82,2.49,1.62,3.69,2.48.45.32,1.14.08,1.4-.37.3-.52.08-1.08-.37-1.4-2.88-2.07-5.91-3.95-8.87-5.91-4.29-2.83-8.59-5.66-12.87-8.5-1.23-.82-2.49-1.62-3.69-2.48-.45-.32-1.14-.08-1.4.37-.3.52-.08,1.08.37,1.4h0Z"/>
          <path class="cls-2" d="M174.38,353.31c-2.61,1.09-5.22,2.28-6.8,4.74-1.49,2.32-1.82,5.21-1.88,7.91-.03,1.32,2.03,1.32,2.05,0,.05-2.29.28-4.72,1.5-6.72,1.26-2.06,3.53-3.06,5.67-3.95.51-.21.88-.68.72-1.26-.13-.48-.75-.93-1.26-.72h0Z"/>
          <path class="cls-2" d="M264.37,356.09c2.03.56,4.03,2.07,5.12,3.87.62,1.03.95,2.2,1.37,3.32.18.48.34.96.45,1.47.03.15.06.31.1.46.02.09.03.18.05.26.05.2-.01-.18,0-.07.05-.17.09-.35.14-.52,0,0,0,0,0,0h1.77c.03.06.05.13.08.19-.2-.52-.69-.87-1.26-.72-.49.14-.92.74-.72,1.26.04.1.07.21.13.3.41.68,1.35.65,1.77,0,.27-.41.09-.97,0-1.41-.1-.49-.22-.97-.39-1.44-.49-1.36-.92-2.82-1.65-4.07-1.34-2.29-3.83-4.19-6.39-4.89-1.28-.35-1.82,1.63-.55,1.98h0Z"/>
        </g>
        <g>
          <g>
            <path class="cls-5" d="M204.36,155.74c0,7.36-4.41,13.33-9.85,13.33-3.71,0-6.94-2.77-8.62-6.87-.79-1.91-1.24-4.12-1.24-6.47,0-4.46,1.62-8.4,4.11-10.82,1.62-1.58,3.61-2.51,5.75-2.51,5.44,0,9.85,5.97,9.85,13.33Z"/>
            <path class="cls-2" d="M198.17,154.88c0,5.8-3.21,10.49-7.16,10.49-2.01,0-3.83-1.21-5.12-3.16-.79-1.91-1.24-4.12-1.24-6.47,0-4.46,1.62-8.4,4.11-10.82.71-.34,1.47-.53,2.25-.53,3.95,0,7.16,4.7,7.16,10.49Z"/>
          </g>
          <g>
            <path class="cls-5" d="M245.02,155.89c0,7.36-4.41,13.33-9.85,13.33-3.36,0-6.34-2.28-8.11-5.77-1.1-2.15-1.74-4.76-1.74-7.57,0-1.21.12-2.39.34-3.52.17-.82.94-1.38,1.77-1.34l10.54.62,5.3.31c.81.05,1.48.66,1.59,1.47.11.8.17,1.62.17,2.46Z"/>
            <path class="cls-2" d="M238.29,154.82c0,5.79-3.21,10.49-7.16,10.49-1.51,0-2.92-.68-4.07-1.86-1.1-2.15-1.74-4.76-1.74-7.57,0-1.21.12-2.39.34-3.52.17-.82.94-1.38,1.77-1.34l10.54.62c.21.99.33,2.06.33,3.17Z"/>
          </g>
          <path class="cls-2" d="M232.57,137.76c3.9,2.57,8.3,4.36,12.89,5.24,1.29.25,1.84-1.73.55-1.98-4.44-.85-8.63-2.55-12.4-5.04-1.11-.73-2.13,1.05-1.04,1.77h0Z"/>
          <path class="cls-2" d="M196.58,128.84c-4.83-4.34-12.83-4.66-17.57,0-.94.93.51,2.38,1.45,1.45,3.92-3.85,10.67-3.6,14.67,0,.98.88,2.43-.57,1.45-1.45h0Z"/>
          <path class="cls-2" d="M228.73,183.06c-3.15-.58-6.44-.09-9.22,1.54-2.55,1.49-4.45,3.81-5.58,6.51-.21.51.23,1.13.72,1.26.59.16,1.05-.2,1.26-.72,1.98-4.77,7.21-7.56,12.28-6.62,1.29.24,1.84-1.74.55-1.98h0Z"/>
        </g>
      </g>
    </g>
  </g>
</svg>