<svg version="1.1" xmlns="http://www.w3.org/2000/svg" xmlns:xlink="http://www.w3.org/1999/xlink" x="0px" y="0px" viewBox="0 0 167 59.4" style="enable-background:new 0 0 167 59.4;" xml:space="preserve">
<style type="text/css">
	.st0{fill:#E83F35;}
</style>
<g id="Layer_1">
	<path id="economics" d="M125.7,53.1l0.1-1.2c-0.5-0.2-1.1-0.3-1.7-0.3c-1.5,0-2.6,0.7-2.6,2.3c0,2.1,3.2,1.9,3.2,3.3
		c0,0.8-0.8,1.1-1.4,1.1c-0.4,0-1.2-0.2-1.7-0.5l-0.1,1.2c0.6,0.3,1.3,0.4,2,0.4c1.3,0,2.6-0.7,2.6-2.3c0-2.3-3.2-1.9-3.2-3.4
		c0-0.6,0.6-0.9,1.3-0.9C124.6,52.8,125.4,53,125.7,53.1 M116.7,55.5c0-1.4,0.9-2.8,2.4-2.8c0.4,0,1,0.1,1.5,0.3l0.1-1.1
		c-0.4-0.2-1.1-0.3-1.6-0.3c-2.2,0-3.7,1.6-3.7,3.8c0,2.1,1.5,3.8,3.7,3.8c0.5,0,1.1,0,1.7-0.3l-0.1-1.2c-0.4,0.3-1,0.4-1.5,0.4
		C117.4,58.3,116.7,56.8,116.7,55.5 M111.9,50.2h1.5v-1.5h-1.5V50.2z M108.2,59.2h1.4v-4.7c0-1.6-0.7-2.8-2.6-2.8
		c-0.7,0-1.8,0.4-2.3,1.4c-0.4-1-1.2-1.4-2.1-1.4c-1.1,0-1.8,0.4-2.3,1.2l0,0v-1.1H99v7.4h1.4v-3.7c0-1.4,0.5-2.7,1.9-2.7
		c1.1,0,1.3,1.1,1.3,2v4.4h1.4v-3.7c0-1.4,0.5-2.7,1.9-2.7c1.1,0,1.3,1.1,1.3,2L108.2,59.2L108.2,59.2z M97.2,55.5
		c0-2.2-1.5-3.8-3.7-3.8c-2.3,0-3.7,1.6-3.7,3.8c0,2.1,1.5,3.8,3.7,3.8C95.7,59.4,97.2,57.6,97.2,55.5 M95.7,55.5
		c0,1.3-0.7,2.8-2.3,2.8c-1.6,0-2.3-1.4-2.3-2.8c0-1.4,0.9-2.8,2.3-2.8C94.9,52.8,95.7,54.1,95.7,55.5 M86.5,59.2h1.4v-4.4
		c0-2-0.9-3.2-2.8-3.2c-1,0-2,0.5-2.4,1.3l0,0v-1.2h-1.3v7.4h1.4v-3.4c0-1.8,0.7-3,2.2-3c1.2,0.1,1.6,0.9,1.6,2.6L86.5,59.2
		L86.5,59.2z M79.6,55.5c0-2.2-1.5-3.8-3.7-3.8s-3.7,1.6-3.7,3.8c0,2.1,1.5,3.8,3.7,3.8C78.1,59.4,79.6,57.6,79.6,55.5 M78.1,55.5
		c0,1.3-0.7,2.8-2.3,2.8c-1.6,0-2.3-1.4-2.3-2.8c0-1.4,0.9-2.8,2.3-2.8C77.3,52.8,78.1,54.1,78.1,55.5 M67,55.5
		c0-1.4,0.9-2.8,2.4-2.8c0.4,0,1,0.1,1.5,0.3l0.1-1c-0.4-0.2-1.1-0.3-1.6-0.3c-2.2,0-3.7,1.6-3.7,3.8c0,2.1,1.5,3.8,3.7,3.8
		c0.5,0,1.1,0,1.7-0.3L71,57.8c-0.4,0.3-1,0.4-1.5,0.4C67.7,58.3,67,56.8,67,55.5 M59.1,55.8h5.2c0-2.4-0.8-4.2-3.2-4.2
		c-2.1,0-3.4,1.5-3.4,3.7c0,2.4,1.2,4,3.8,4c1.2,0,1.8-0.3,2.3-0.5v-1.4c-0.3,0.3-1.4,0.7-2.3,0.7C60.3,58.3,59.1,57.3,59.1,55.8
		 M59.1,54.8c0.1-1,0.6-2,2-2c1.2,0,1.8,0.9,1.8,2H59.1z M113.3,51.8H112v7.4h1.4L113.3,51.8L113.3,51.8z"></path>
</g>
<g id="Layer_2">
	<path id="frontier" d="M133.1,29.2v-5.3c-0.6-0.2-1.1-0.2-1.6-0.2c-3.1,0-5.3,3.2-5.5,5.1h-0.1v-4.6h-4.7v20.3h5.3v-7.4
		c0-2.9,0-8.3,4.3-8.3C131.7,28.8,132.6,29,133.1,29.2 M103.8,36h14c0-7.1-2.1-12.2-9.6-12.2c-6.3,0-9.4,4.8-9.4,10.7
		c0,6.6,3.9,10.5,10.6,10.5c2.8,0,5-0.6,7-1.6v-4.3c-2,1.1-4.2,2-6.7,2C106.3,41.1,104,39.3,103.8,36 M103.8,32.4
		c0.2-2.7,1.7-4.8,4.7-4.8c2.9,0,4.1,2.2,4.3,4.8H103.8z M90.1,44.5h5.3V24.2h-5.3V44.5z M90.1,20.5h5.3v-5h-5.3V20.5z M83.7,45
		c1.6,0,2.8-0.2,3.9-0.5l-0.2-4.2c-0.5,0.4-1.5,0.5-2.4,0.5c-2,0-2.5-1.6-2.5-3.3v-9.4h4.7v-3.9h-4.7v-5.7l-5.3,1.7v4.1h-3.9v3.9
		h3.9v10.3C77.3,42.4,79.6,45,83.7,45 M66.6,44.5h5.3V31.7c0-4.6-2.1-8-6.9-8c-2.8,0-5,0.9-6.7,3.2h-0.1v-2.8h-5v20.3h5.3v-9.9
		c0-2.6,0.8-6.7,4.6-6.7c3.4,0,3.4,3.3,3.4,5.8L66.6,44.5L66.6,44.5z M50.9,34.5c0-6.7-4.6-10.7-10.6-10.7s-10.6,4.1-10.6,10.7
		c0,5.8,3.9,10.5,10.6,10.5S50.9,40.3,50.9,34.5 M45.4,33.9c0,3.4-1.1,7-5.1,7s-5.1-3.7-5.1-7c0-3,1.7-6,5.1-6
		C43.7,27.9,45.4,30.8,45.4,33.9 M26.1,28.8c0.9,0,1.9,0.2,2.4,0.4v-5.3c-0.5-0.2-1.1-0.2-1.6-0.2c-3.2,0-5.3,3.2-5.6,5.1h-0.1v-4.6
		h-4.7v20.3h5.3v-7.4C21.8,34.2,21.8,28.8,26.1,28.8 M13.8,19.3l0.4-4.4c-1-0.2-2.5-0.4-3.9-0.4c-4.2,0-6.5,2.8-6.5,6.9v2.8H0v3.9
		h3.9v16.4h5.3V28.1h4.6v-3.9H9.2v-2.5c0-1.6,0.5-3.1,2.3-3.1C12.6,18.6,13.3,19.1,13.8,19.3"></path>
</g>
<g id="Layer_3">
	<path id="red" class="st0" d="M167,33.4l-8.1,16.7c-17-61.8-86-43.4-104.9-41C54,9.1,133.9-23,167,33.4"></path>
</g>
</svg>