<?xml version="1.0" encoding="UTF-8"?>
<svg id="Layer_1" xmlns="http://www.w3.org/2000/svg" version="1.1" viewBox="0 0 167 59.4">
  <!-- Generator: Adobe Illustrator 29.5.1, SVG Export Plug-In . SVG Version: 2.1.0 Build 141)  -->
  <defs>
    <style>
      .st0 {
        fill: #fff;
      }
    </style>
  </defs>
  <g id="Layer_11" data-name="Layer_1">
    <path id="economics" class="st0" d="M125.7,53.1v-1.2c-.4-.2-1-.3-1.6-.3-1.5,0-2.6.7-2.6,2.3s3.2,1.9,3.2,3.3-.8,1.1-1.4,1.1-1.2-.2-1.7-.5v1.2c.5.3,1.2.4,1.9.4,1.3,0,2.6-.7,2.6-2.3,0-2.3-3.2-1.9-3.2-3.4s.6-.9,1.3-.9c.4,0,1.2.2,1.5.3M116.7,55.5c0-1.4.9-2.8,2.4-2.8s1,0,1.5.3v-1.1c-.3-.2-1-.3-1.5-.3-2.2,0-3.7,1.6-3.7,3.8s1.5,3.8,3.7,3.8,1.1,0,1.7-.3v-1.2c-.5.3-1.1.4-1.6.4-1.8.2-2.5-1.3-2.5-2.6M111.9,50.2h1.5v-1.5h-1.5v1.5ZM108.2,59.2h1.4v-4.7c0-1.6-.7-2.8-2.6-2.8s-1.8.4-2.3,1.4c-.4-1-1.2-1.4-2.1-1.4s-1.8.4-2.3,1.2h0v-1.1h-1.3v7.4h1.4v-3.7c0-1.4.5-2.7,1.9-2.7s1.3,1.1,1.3,2v4.4h1.4v-3.7c0-1.4.5-2.7,1.9-2.7s1.3,1.1,1.3,2v4.4h0ZM97.2,55.5c0-2.2-1.5-3.8-3.7-3.8s-3.7,1.6-3.7,3.8,1.5,3.8,3.7,3.8c2.2.1,3.7-1.7,3.7-3.8M95.7,55.5c0,1.3-.7,2.8-2.3,2.8s-2.3-1.4-2.3-2.8.9-2.8,2.3-2.8c1.5,0,2.3,1.4,2.3,2.8M86.5,59.2h1.4v-4.4c0-2-.9-3.2-2.8-3.2s-2,.5-2.4,1.3h0v-1.2h-1.3v7.4h1.4v-3.4c0-1.8.7-3,2.2-3,1.2,0,1.6.9,1.6,2.6v3.9h0ZM79.6,55.5c0-2.2-1.5-3.8-3.7-3.8s-3.7,1.6-3.7,3.8,1.5,3.8,3.7,3.8c2.2.1,3.7-1.7,3.7-3.8M78.1,55.5c0,1.3-.7,2.8-2.3,2.8s-2.3-1.4-2.3-2.8.9-2.8,2.3-2.8c1.5,0,2.3,1.4,2.3,2.8M67,55.5c0-1.4.9-2.8,2.4-2.8s1,0,1.5.3v-1c-.3-.2-1-.3-1.5-.3-2.2,0-3.7,1.6-3.7,3.8s1.5,3.8,3.7,3.8,1.1,0,1.7-.3v-1.2c-.5.3-1.1.4-1.6.4-1.8,0-2.5-1.4-2.5-2.7M59.1,55.8h5.2c0-2.4-.8-4.2-3.2-4.2s-3.4,1.5-3.4,3.7,1.2,4,3.8,4,1.8-.3,2.3-.5v-1.4c-.3.3-1.4.7-2.3.7-1.2.2-2.4-.8-2.4-2.3M59.1,54.8c0-1,.6-2,2-2s1.8.9,1.8,2h-3.8ZM113.3,51.8h-1.3v7.4h1.4v-7.4h0Z"/>
  </g>
  <g id="Layer_2">
    <path id="frontier" class="st0" d="M133.1,29.2v-5.3c-.6-.2-1.1-.2-1.6-.2-3.1,0-5.3,3.2-5.5,5.1h0v-4.6h-4.7v20.3h5.3v-7.4c0-2.9,0-8.3,4.3-8.3s1.8.2,2.3.4M103.8,36h14c0-7.1-2.1-12.2-9.6-12.2s-9.4,4.8-9.4,10.7,3.9,10.5,10.6,10.5,5-.6,7-1.6v-4.3c-2,1.1-4.2,2-6.7,2-3.4,0-5.7-1.8-5.9-5.1M103.8,32.4c.2-2.7,1.7-4.8,4.7-4.8s4.1,2.2,4.3,4.8h-9ZM90.1,44.5h5.3v-20.3h-5.3v20.3ZM90.1,20.5h5.3v-5h-5.3v5ZM83.7,45c1.6,0,2.8-.2,3.9-.5l-.2-4.2c-.5.4-1.5.5-2.4.5-2,0-2.5-1.6-2.5-3.3v-9.4h4.7v-3.9h-4.7v-5.7l-5.3,1.7v4.1h-3.9v3.9h3.9v10.3c.1,3.9,2.4,6.5,6.5,6.5M66.6,44.5h5.3v-12.8c0-4.6-2.1-8-6.9-8s-5,.9-6.7,3.2h0v-2.8h-5v20.3h5.3v-9.9c0-2.6.8-6.7,4.6-6.7s3.4,3.3,3.4,5.8v10.9h0ZM50.9,34.5c0-6.7-4.6-10.7-10.6-10.7s-10.6,4.1-10.6,10.7,3.9,10.5,10.6,10.5,10.6-4.7,10.6-10.5M45.4,33.9c0,3.4-1.1,7-5.1,7s-5.1-3.7-5.1-7,1.7-6,5.1-6c3.4,0,5.1,2.9,5.1,6M26.1,28.8c.9,0,1.9.2,2.4.4v-5.3c-.5-.2-1.1-.2-1.6-.2-3.2,0-5.3,3.2-5.6,5.1h-.1v-4.6h-4.7v20.3h5.3v-7.4c0-2.9,0-8.3,4.3-8.3M13.8,19.3l.4-4.4c-1-.2-2.5-.4-3.9-.4-4.2,0-6.5,2.8-6.5,6.9v2.8H0v3.9h3.9v16.4h5.3v-16.4h4.6v-3.9h-4.6v-2.5c0-1.6.5-3.1,2.3-3.1s1.8.5,2.3.7"/>
  </g>
  <g id="Layer_3">
    <path id="red" class="st0" d="M167,33.4l-8.1,16.7C141.9-11.7,72.9,6.7,54,9.1c0,0,79.9-32.1,113,24.3"/>
  </g>
</svg>